<svg width="400" height="400" viewBox="0 0 400 400" fill="none" xmlns="http://www.w3.org/2000/svg">
<g clip-path="url(#clip0_1_68)">
<rect width="400" height="400" fill="white"/>
<path d="M25 400C38.8071 400 50 388.807 50 375C50 361.193 38.8071 350 25 350" stroke="black" stroke-width="3"/>
<path d="M16 400C29.8071 400 41 388.807 41 375C41 361.193 29.8071 350 16 350" stroke="black" stroke-width="3"/>
<path d="M6 400C19.8071 400 31 388.807 31 375C31 361.193 19.8071 350 6 350" stroke="black" stroke-width="3"/>
<path d="M-4 400C9.80712 400 21 388.807 21 375C21 361.193 9.80712 350 -4 350" stroke="black" stroke-width="3"/>
<path d="M-14 400C-0.192882 400 11 388.807 11 375C11 361.193 -0.192882 350 -14 350" stroke="black" stroke-width="3"/>
<path d="M50 400C63.8071 400 75 388.807 75 375C75 361.193 63.8071 350 50 350" stroke="black" stroke-width="3"/>
<path d="M63 400C76.8071 400 88 388.807 88 375C88 361.193 76.8071 350 63 350" stroke="black" stroke-width="3"/>
<path d="M35 400C48.8071 400 60 388.807 60 375C60 361.193 48.8071 350 35 350" stroke="black" stroke-width="3"/>
<path d="M75 400C88.8071 400 100 388.807 100 375C100 361.193 88.8071 350 75 350" stroke="black" stroke-width="3"/>
<path d="M100 400C113.807 400 125 388.807 125 375C125 361.193 113.807 350 100 350" stroke="black" stroke-width="3"/>
<path d="M113 400C126.807 400 138 388.807 138 375C138 361.193 126.807 350 113 350" stroke="black" stroke-width="3"/>
<path d="M85 400C98.8071 400 110 388.807 110 375C110 361.193 98.8071 350 85 350" stroke="black" stroke-width="3"/>
<path d="M125 400C138.807 400 150 388.807 150 375C150 361.193 138.807 350 125 350" stroke="black" stroke-width="3"/>
<path d="M150 400C163.807 400 175 388.807 175 375C175 361.193 163.807 350 150 350" stroke="black" stroke-width="3"/>
<path d="M163 400C176.807 400 188 388.807 188 375C188 361.193 176.807 350 163 350" stroke="black" stroke-width="3"/>
<path d="M135 400C148.807 400 160 388.807 160 375C160 361.193 148.807 350 135 350" stroke="black" stroke-width="3"/>
<path d="M175 400C188.807 400 200 388.807 200 375C200 361.193 188.807 350 175 350" stroke="black" stroke-width="3"/>
<path d="M200 400C213.807 400 225 388.807 225 375C225 361.193 213.807 350 200 350" stroke="black" stroke-width="3"/>
<path d="M213 400C226.807 400 238 388.807 238 375C238 361.193 226.807 350 213 350" stroke="black" stroke-width="3"/>
<path d="M185 400C198.807 400 210 388.807 210 375C210 361.193 198.807 350 185 350" stroke="black" stroke-width="3"/>
<path d="M225 400C238.807 400 250 388.807 250 375C250 361.193 238.807 350 225 350" stroke="black" stroke-width="3"/>
<path d="M250 400C263.807 400 275 388.807 275 375C275 361.193 263.807 350 250 350" stroke="black" stroke-width="3"/>
<path d="M263 400C276.807 400 288 388.807 288 375C288 361.193 276.807 350 263 350" stroke="black" stroke-width="3"/>
<path d="M235 400C248.807 400 260 388.807 260 375C260 361.193 248.807 350 235 350" stroke="black" stroke-width="3"/>
<path d="M275 400C288.807 400 300 388.807 300 375C300 361.193 288.807 350 275 350" stroke="black" stroke-width="3"/>
<path d="M300 400C313.807 400 325 388.807 325 375C325 361.193 313.807 350 300 350" stroke="black" stroke-width="3"/>
<path d="M313 400C326.807 400 338 388.807 338 375C338 361.193 326.807 350 313 350" stroke="black" stroke-width="3"/>
<path d="M285 400C298.807 400 310 388.807 310 375C310 361.193 298.807 350 285 350" stroke="black" stroke-width="3"/>
<path d="M325 400C338.807 400 350 388.807 350 375C350 361.193 338.807 350 325 350" stroke="black" stroke-width="3"/>
<path d="M350 400C363.807 400 375 388.807 375 375C375 361.193 363.807 350 350 350" stroke="black" stroke-width="3"/>
<path d="M363 400C376.807 400 388 388.807 388 375C388 361.193 376.807 350 363 350" stroke="black" stroke-width="3"/>
<path d="M335 400C348.807 400 360 388.807 360 375C360 361.193 348.807 350 335 350" stroke="black" stroke-width="3"/>
<path d="M375 400C388.807 400 400 388.807 400 375C400 361.193 388.807 350 375 350" stroke="black" stroke-width="3"/>
<path d="M385 400C398.807 400 410 388.807 410 375C410 361.193 398.807 350 385 350" stroke="black" stroke-width="3"/>
<path d="M25 300C38.8071 300 50 288.807 50 275C50 261.193 38.8071 250 25 250" stroke="black" stroke-width="3"/>
<path d="M16 300C29.8071 300 41 288.807 41 275C41 261.193 29.8071 250 16 250" stroke="black" stroke-width="3"/>
<path d="M6 300C19.8071 300 31 288.807 31 275C31 261.193 19.8071 250 6 250" stroke="black" stroke-width="3"/>
<path d="M-4 300C9.80712 300 21 288.807 21 275C21 261.193 9.80712 250 -4 250" stroke="black" stroke-width="3"/>
<path d="M-14 300C-0.192882 300 11 288.807 11 275C11 261.193 -0.192882 250 -14 250" stroke="black" stroke-width="3"/>
<path d="M50 300C63.8071 300 75 288.807 75 275C75 261.193 63.8071 250 50 250" stroke="black" stroke-width="3"/>
<path d="M63 300C76.8071 300 88 288.807 88 275C88 261.193 76.8071 250 63 250" stroke="black" stroke-width="3"/>
<path d="M35 300C48.8071 300 60 288.807 60 275C60 261.193 48.8071 250 35 250" stroke="black" stroke-width="3"/>
<path d="M75 300C88.8071 300 100 288.807 100 275C100 261.193 88.8071 250 75 250" stroke="black" stroke-width="3"/>
<path d="M100 300C113.807 300 125 288.807 125 275C125 261.193 113.807 250 100 250" stroke="black" stroke-width="3"/>
<path d="M113 300C126.807 300 138 288.807 138 275C138 261.193 126.807 250 113 250" stroke="black" stroke-width="3"/>
<path d="M85 300C98.8071 300 110 288.807 110 275C110 261.193 98.8071 250 85 250" stroke="black" stroke-width="3"/>
<path d="M125 300C138.807 300 150 288.807 150 275C150 261.193 138.807 250 125 250" stroke="black" stroke-width="3"/>
<path d="M150 300C163.807 300 175 288.807 175 275C175 261.193 163.807 250 150 250" stroke="black" stroke-width="3"/>
<path d="M163 300C176.807 300 188 288.807 188 275C188 261.193 176.807 250 163 250" stroke="black" stroke-width="3"/>
<path d="M135 300C148.807 300 160 288.807 160 275C160 261.193 148.807 250 135 250" stroke="black" stroke-width="3"/>
<path d="M175 300C188.807 300 200 288.807 200 275C200 261.193 188.807 250 175 250" stroke="black" stroke-width="3"/>
<path d="M200 300C213.807 300 225 288.807 225 275C225 261.193 213.807 250 200 250" stroke="black" stroke-width="3"/>
<path d="M213 300C226.807 300 238 288.807 238 275C238 261.193 226.807 250 213 250" stroke="black" stroke-width="3"/>
<path d="M185 300C198.807 300 210 288.807 210 275C210 261.193 198.807 250 185 250" stroke="black" stroke-width="3"/>
<path d="M225 300C238.807 300 250 288.807 250 275C250 261.193 238.807 250 225 250" stroke="black" stroke-width="3"/>
<path d="M250 300C263.807 300 275 288.807 275 275C275 261.193 263.807 250 250 250" stroke="black" stroke-width="3"/>
<path d="M263 300C276.807 300 288 288.807 288 275C288 261.193 276.807 250 263 250" stroke="black" stroke-width="3"/>
<path d="M235 300C248.807 300 260 288.807 260 275C260 261.193 248.807 250 235 250" stroke="black" stroke-width="3"/>
<path d="M275 300C288.807 300 300 288.807 300 275C300 261.193 288.807 250 275 250" stroke="black" stroke-width="3"/>
<path d="M300 300C313.807 300 325 288.807 325 275C325 261.193 313.807 250 300 250" stroke="black" stroke-width="3"/>
<path d="M313 300C326.807 300 338 288.807 338 275C338 261.193 326.807 250 313 250" stroke="black" stroke-width="3"/>
<path d="M285 300C298.807 300 310 288.807 310 275C310 261.193 298.807 250 285 250" stroke="black" stroke-width="3"/>
<path d="M325 300C338.807 300 350 288.807 350 275C350 261.193 338.807 250 325 250" stroke="black" stroke-width="3"/>
<path d="M350 300C363.807 300 375 288.807 375 275C375 261.193 363.807 250 350 250" stroke="black" stroke-width="3"/>
<path d="M363 300C376.807 300 388 288.807 388 275C388 261.193 376.807 250 363 250" stroke="black" stroke-width="3"/>
<path d="M335 300C348.807 300 360 288.807 360 275C360 261.193 348.807 250 335 250" stroke="black" stroke-width="3"/>
<path d="M375 300C388.807 300 400 288.807 400 275C400 261.193 388.807 250 375 250" stroke="black" stroke-width="3"/>
<path d="M385 300C398.807 300 410 288.807 410 275C410 261.193 398.807 250 385 250" stroke="black" stroke-width="3"/>
<path d="M25 200C38.8071 200 50 188.807 50 175C50 161.193 38.8071 150 25 150" stroke="black" stroke-width="3"/>
<path d="M16 200C29.8071 200 41 188.807 41 175C41 161.193 29.8071 150 16 150" stroke="black" stroke-width="3"/>
<path d="M6 200C19.8071 200 31 188.807 31 175C31 161.193 19.8071 150 6 150" stroke="black" stroke-width="3"/>
<path d="M-4 200C9.80712 200 21 188.807 21 175C21 161.193 9.80712 150 -4 150" stroke="black" stroke-width="3"/>
<path d="M-14 200C-0.192882 200 11 188.807 11 175C11 161.193 -0.192882 150 -14 150" stroke="black" stroke-width="3"/>
<path d="M50 200C63.8071 200 75 188.807 75 175C75 161.193 63.8071 150 50 150" stroke="black" stroke-width="3"/>
<path d="M63 200C76.8071 200 88 188.807 88 175C88 161.193 76.8071 150 63 150" stroke="black" stroke-width="3"/>
<path d="M35 200C48.8071 200 60 188.807 60 175C60 161.193 48.8071 150 35 150" stroke="black" stroke-width="3"/>
<path d="M75 200C88.8071 200 100 188.807 100 175C100 161.193 88.8071 150 75 150" stroke="black" stroke-width="3"/>
<path d="M100 200C113.807 200 125 188.807 125 175C125 161.193 113.807 150 100 150" stroke="black" stroke-width="3"/>
<path d="M113 200C126.807 200 138 188.807 138 175C138 161.193 126.807 150 113 150" stroke="black" stroke-width="3"/>
<path d="M85 200C98.8071 200 110 188.807 110 175C110 161.193 98.8071 150 85 150" stroke="black" stroke-width="3"/>
<path d="M125 200C138.807 200 150 188.807 150 175C150 161.193 138.807 150 125 150" stroke="black" stroke-width="3"/>
<path d="M150 200C163.807 200 175 188.807 175 175C175 161.193 163.807 150 150 150" stroke="black" stroke-width="3"/>
<path d="M163 200C176.807 200 188 188.807 188 175C188 161.193 176.807 150 163 150" stroke="black" stroke-width="3"/>
<path d="M135 200C148.807 200 160 188.807 160 175C160 161.193 148.807 150 135 150" stroke="black" stroke-width="3"/>
<path d="M175 200C188.807 200 200 188.807 200 175C200 161.193 188.807 150 175 150" stroke="black" stroke-width="3"/>
<path d="M200 200C213.807 200 225 188.807 225 175C225 161.193 213.807 150 200 150" stroke="black" stroke-width="3"/>
<path d="M213 200C226.807 200 238 188.807 238 175C238 161.193 226.807 150 213 150" stroke="black" stroke-width="3"/>
<path d="M185 200C198.807 200 210 188.807 210 175C210 161.193 198.807 150 185 150" stroke="black" stroke-width="3"/>
<path d="M225 200C238.807 200 250 188.807 250 175C250 161.193 238.807 150 225 150" stroke="black" stroke-width="3"/>
<path d="M250 200C263.807 200 275 188.807 275 175C275 161.193 263.807 150 250 150" stroke="black" stroke-width="3"/>
<path d="M263 200C276.807 200 288 188.807 288 175C288 161.193 276.807 150 263 150" stroke="black" stroke-width="3"/>
<path d="M235 200C248.807 200 260 188.807 260 175C260 161.193 248.807 150 235 150" stroke="black" stroke-width="3"/>
<path d="M275 200C288.807 200 300 188.807 300 175C300 161.193 288.807 150 275 150" stroke="black" stroke-width="3"/>
<path d="M300 200C313.807 200 325 188.807 325 175C325 161.193 313.807 150 300 150" stroke="black" stroke-width="3"/>
<path d="M313 200C326.807 200 338 188.807 338 175C338 161.193 326.807 150 313 150" stroke="black" stroke-width="3"/>
<path d="M285 200C298.807 200 310 188.807 310 175C310 161.193 298.807 150 285 150" stroke="black" stroke-width="3"/>
<path d="M325 200C338.807 200 350 188.807 350 175C350 161.193 338.807 150 325 150" stroke="black" stroke-width="3"/>
<path d="M350 200C363.807 200 375 188.807 375 175C375 161.193 363.807 150 350 150" stroke="black" stroke-width="3"/>
<path d="M363 200C376.807 200 388 188.807 388 175C388 161.193 376.807 150 363 150" stroke="black" stroke-width="3"/>
<path d="M335 200C348.807 200 360 188.807 360 175C360 161.193 348.807 150 335 150" stroke="black" stroke-width="3"/>
<path d="M375 200C388.807 200 400 188.807 400 175C400 161.193 388.807 150 375 150" stroke="black" stroke-width="3"/>
<path d="M385 200C398.807 200 410 188.807 410 175C410 161.193 398.807 150 385 150" stroke="black" stroke-width="3"/>
<path d="M25 100C38.8071 100 50 88.8071 50 75C50 61.1929 38.8071 50 25 50" stroke="black" stroke-width="3"/>
<path d="M16 100C29.8071 100 41 88.8071 41 75C41 61.1929 29.8071 50 16 50" stroke="black" stroke-width="3"/>
<path d="M6 100C19.8071 100 31 88.8071 31 75C31 61.1929 19.8071 50 6 50" stroke="black" stroke-width="3"/>
<path d="M-4 100C9.80712 100 21 88.8071 21 75C21 61.1929 9.80712 50 -4 50" stroke="black" stroke-width="3"/>
<path d="M-14 100C-0.192882 100 11 88.8071 11 75C11 61.1929 -0.192882 50 -14 50" stroke="black" stroke-width="3"/>
<path d="M50 100C63.8071 100 75 88.8071 75 75C75 61.1929 63.8071 50 50 50" stroke="black" stroke-width="3"/>
<path d="M63 100C76.8071 100 88 88.8071 88 75C88 61.1929 76.8071 50 63 50" stroke="black" stroke-width="3"/>
<path d="M35 100C48.8071 100 60 88.8071 60 75C60 61.1929 48.8071 50 35 50" stroke="black" stroke-width="3"/>
<path d="M75 100C88.8071 100 100 88.8071 100 75C100 61.1929 88.8071 50 75 50" stroke="black" stroke-width="3"/>
<path d="M100 100C113.807 100 125 88.8071 125 75C125 61.1929 113.807 50 100 50" stroke="black" stroke-width="3"/>
<path d="M113 100C126.807 100 138 88.8071 138 75C138 61.1929 126.807 50 113 50" stroke="black" stroke-width="3"/>
<path d="M85 100C98.8071 100 110 88.8071 110 75C110 61.1929 98.8071 50 85 50" stroke="black" stroke-width="3"/>
<path d="M125 100C138.807 100 150 88.8071 150 75C150 61.1929 138.807 50 125 50" stroke="black" stroke-width="3"/>
<path d="M150 100C163.807 100 175 88.8071 175 75C175 61.1929 163.807 50 150 50" stroke="black" stroke-width="3"/>
<path d="M163 100C176.807 100 188 88.8071 188 75C188 61.1929 176.807 50 163 50" stroke="black" stroke-width="3"/>
<path d="M135 100C148.807 100 160 88.8071 160 75C160 61.1929 148.807 50 135 50" stroke="black" stroke-width="3"/>
<path d="M175 100C188.807 100 200 88.8071 200 75C200 61.1929 188.807 50 175 50" stroke="black" stroke-width="3"/>
<path d="M200 100C213.807 100 225 88.8071 225 75C225 61.1929 213.807 50 200 50" stroke="black" stroke-width="3"/>
<path d="M213 100C226.807 100 238 88.8071 238 75C238 61.1929 226.807 50 213 50" stroke="black" stroke-width="3"/>
<path d="M185 100C198.807 100 210 88.8071 210 75C210 61.1929 198.807 50 185 50" stroke="black" stroke-width="3"/>
<path d="M225 100C238.807 100 250 88.8071 250 75C250 61.1929 238.807 50 225 50" stroke="black" stroke-width="3"/>
<path d="M250 100C263.807 100 275 88.8071 275 75C275 61.1929 263.807 50 250 50" stroke="black" stroke-width="3"/>
<path d="M263 100C276.807 100 288 88.8071 288 75C288 61.1929 276.807 50 263 50" stroke="black" stroke-width="3"/>
<path d="M235 100C248.807 100 260 88.8071 260 75C260 61.1929 248.807 50 235 50" stroke="black" stroke-width="3"/>
<path d="M275 100C288.807 100 300 88.8071 300 75C300 61.1929 288.807 50 275 50" stroke="black" stroke-width="3"/>
<path d="M300 100C313.807 100 325 88.8071 325 75C325 61.1929 313.807 50 300 50" stroke="black" stroke-width="3"/>
<path d="M313 100C326.807 100 338 88.8071 338 75C338 61.1929 326.807 50 313 50" stroke="black" stroke-width="3"/>
<path d="M285 100C298.807 100 310 88.8071 310 75C310 61.1929 298.807 50 285 50" stroke="black" stroke-width="3"/>
<path d="M325 100C338.807 100 350 88.8071 350 75C350 61.1929 338.807 50 325 50" stroke="black" stroke-width="3"/>
<path d="M350 100C363.807 100 375 88.8071 375 75C375 61.1929 363.807 50 350 50" stroke="black" stroke-width="3"/>
<path d="M363 100C376.807 100 388 88.8071 388 75C388 61.1929 376.807 50 363 50" stroke="black" stroke-width="3"/>
<path d="M335 100C348.807 100 360 88.8071 360 75C360 61.1929 348.807 50 335 50" stroke="black" stroke-width="3"/>
<path d="M375 100C388.807 100 400 88.8071 400 75C400 61.1929 388.807 50 375 50" stroke="black" stroke-width="3"/>
<path d="M385 100C398.807 100 410 88.8071 410 75C410 61.1929 398.807 50 385 50" stroke="black" stroke-width="3"/>
<path d="M25 300C11.1929 300 3.39263e-06 311.193 2.18557e-06 325C9.78513e-07 338.807 11.1929 350 25 350" stroke="black" stroke-width="3"/>
<path d="M16 300C2.19289 300 -9 311.193 -9 325C-9 338.807 2.19288 350 16 350" stroke="black" stroke-width="3"/>
<path d="M6 300C-7.80711 300 -19 311.193 -19 325C-19 338.807 -7.80712 350 6 350" stroke="black" stroke-width="3"/>
<path d="M50 300C36.1929 300 25 311.193 25 325C25 338.807 36.1929 350 50 350" stroke="black" stroke-width="3"/>
<path d="M63 300C49.1929 300 38 311.193 38 325C38 338.807 49.1929 350 63 350" stroke="black" stroke-width="3"/>
<path d="M35 300C21.1929 300 10 311.193 10 325C10 338.807 21.1929 350 35 350" stroke="black" stroke-width="3"/>
<path d="M75 300C61.1929 300 50 311.193 50 325C50 338.807 61.1929 350 75 350" stroke="black" stroke-width="3"/>
<path d="M100 300C86.1929 300 75 311.193 75 325C75 338.807 86.1929 350 100 350" stroke="black" stroke-width="3"/>
<path d="M113 300C99.1929 300 88 311.193 88 325C88 338.807 99.1929 350 113 350" stroke="black" stroke-width="3"/>
<path d="M85 300C71.1929 300 60 311.193 60 325C60 338.807 71.1929 350 85 350" stroke="black" stroke-width="3"/>
<path d="M125 300C111.193 300 100 311.193 100 325C100 338.807 111.193 350 125 350" stroke="black" stroke-width="3"/>
<path d="M150 300C136.193 300 125 311.193 125 325C125 338.807 136.193 350 150 350" stroke="black" stroke-width="3"/>
<path d="M163 300C149.193 300 138 311.193 138 325C138 338.807 149.193 350 163 350" stroke="black" stroke-width="3"/>
<path d="M135 300C121.193 300 110 311.193 110 325C110 338.807 121.193 350 135 350" stroke="black" stroke-width="3"/>
<path d="M175 300C161.193 300 150 311.193 150 325C150 338.807 161.193 350 175 350" stroke="black" stroke-width="3"/>
<path d="M200 300C186.193 300 175 311.193 175 325C175 338.807 186.193 350 200 350" stroke="black" stroke-width="3"/>
<path d="M213 300C199.193 300 188 311.193 188 325C188 338.807 199.193 350 213 350" stroke="black" stroke-width="3"/>
<path d="M185 300C171.193 300 160 311.193 160 325C160 338.807 171.193 350 185 350" stroke="black" stroke-width="3"/>
<path d="M225 300C211.193 300 200 311.193 200 325C200 338.807 211.193 350 225 350" stroke="black" stroke-width="3"/>
<path d="M250 300C236.193 300 225 311.193 225 325C225 338.807 236.193 350 250 350" stroke="black" stroke-width="3"/>
<path d="M263 300C249.193 300 238 311.193 238 325C238 338.807 249.193 350 263 350" stroke="black" stroke-width="3"/>
<path d="M235 300C221.193 300 210 311.193 210 325C210 338.807 221.193 350 235 350" stroke="black" stroke-width="3"/>
<path d="M275 300C261.193 300 250 311.193 250 325C250 338.807 261.193 350 275 350" stroke="black" stroke-width="3"/>
<path d="M300 300C286.193 300 275 311.193 275 325C275 338.807 286.193 350 300 350" stroke="black" stroke-width="3"/>
<path d="M313 300C299.193 300 288 311.193 288 325C288 338.807 299.193 350 313 350" stroke="black" stroke-width="3"/>
<path d="M285 300C271.193 300 260 311.193 260 325C260 338.807 271.193 350 285 350" stroke="black" stroke-width="3"/>
<path d="M325 300C311.193 300 300 311.193 300 325C300 338.807 311.193 350 325 350" stroke="black" stroke-width="3"/>
<path d="M350 300C336.193 300 325 311.193 325 325C325 338.807 336.193 350 350 350" stroke="black" stroke-width="3"/>
<path d="M363 300C349.193 300 338 311.193 338 325C338 338.807 349.193 350 363 350" stroke="black" stroke-width="3"/>
<path d="M335 300C321.193 300 310 311.193 310 325C310 338.807 321.193 350 335 350" stroke="black" stroke-width="3"/>
<path d="M375 300C361.193 300 350 311.193 350 325C350 338.807 361.193 350 375 350" stroke="black" stroke-width="3"/>
<path d="M400 300C386.193 300 375 311.193 375 325C375 338.807 386.193 350 400 350" stroke="black" stroke-width="3"/>
<path d="M413 300C399.193 300 388 311.193 388 325C388 338.807 399.193 350 413 350" stroke="black" stroke-width="3"/>
<path d="M385 300C371.193 300 360 311.193 360 325C360 338.807 371.193 350 385 350" stroke="black" stroke-width="3"/>
<path d="M25 200C11.1929 200 3.39263e-06 211.193 2.18557e-06 225C9.78513e-07 238.807 11.1929 250 25 250" stroke="black" stroke-width="3"/>
<path d="M16 200C2.19289 200 -9 211.193 -9 225C-9 238.807 2.19288 250 16 250" stroke="black" stroke-width="3"/>
<path d="M6 200C-7.80711 200 -19 211.193 -19 225C-19 238.807 -7.80712 250 6 250" stroke="black" stroke-width="3"/>
<path d="M50 200C36.1929 200 25 211.193 25 225C25 238.807 36.1929 250 50 250" stroke="black" stroke-width="3"/>
<path d="M63 200C49.1929 200 38 211.193 38 225C38 238.807 49.1929 250 63 250" stroke="black" stroke-width="3"/>
<path d="M35 200C21.1929 200 10 211.193 10 225C10 238.807 21.1929 250 35 250" stroke="black" stroke-width="3"/>
<path d="M75 200C61.1929 200 50 211.193 50 225C50 238.807 61.1929 250 75 250" stroke="black" stroke-width="3"/>
<path d="M100 200C86.1929 200 75 211.193 75 225C75 238.807 86.1929 250 100 250" stroke="black" stroke-width="3"/>
<path d="M113 200C99.1929 200 88 211.193 88 225C88 238.807 99.1929 250 113 250" stroke="black" stroke-width="3"/>
<path d="M85 200C71.1929 200 60 211.193 60 225C60 238.807 71.1929 250 85 250" stroke="black" stroke-width="3"/>
<path d="M125 200C111.193 200 100 211.193 100 225C100 238.807 111.193 250 125 250" stroke="black" stroke-width="3"/>
<path d="M150 200C136.193 200 125 211.193 125 225C125 238.807 136.193 250 150 250" stroke="black" stroke-width="3"/>
<path d="M163 200C149.193 200 138 211.193 138 225C138 238.807 149.193 250 163 250" stroke="black" stroke-width="3"/>
<path d="M135 200C121.193 200 110 211.193 110 225C110 238.807 121.193 250 135 250" stroke="black" stroke-width="3"/>
<path d="M175 200C161.193 200 150 211.193 150 225C150 238.807 161.193 250 175 250" stroke="black" stroke-width="3"/>
<path d="M200 200C186.193 200 175 211.193 175 225C175 238.807 186.193 250 200 250" stroke="black" stroke-width="3"/>
<path d="M213 200C199.193 200 188 211.193 188 225C188 238.807 199.193 250 213 250" stroke="black" stroke-width="3"/>
<path d="M185 200C171.193 200 160 211.193 160 225C160 238.807 171.193 250 185 250" stroke="black" stroke-width="3"/>
<path d="M225 200C211.193 200 200 211.193 200 225C200 238.807 211.193 250 225 250" stroke="black" stroke-width="3"/>
<path d="M250 200C236.193 200 225 211.193 225 225C225 238.807 236.193 250 250 250" stroke="black" stroke-width="3"/>
<path d="M263 200C249.193 200 238 211.193 238 225C238 238.807 249.193 250 263 250" stroke="black" stroke-width="3"/>
<path d="M235 200C221.193 200 210 211.193 210 225C210 238.807 221.193 250 235 250" stroke="black" stroke-width="3"/>
<path d="M275 200C261.193 200 250 211.193 250 225C250 238.807 261.193 250 275 250" stroke="black" stroke-width="3"/>
<path d="M300 200C286.193 200 275 211.193 275 225C275 238.807 286.193 250 300 250" stroke="black" stroke-width="3"/>
<path d="M313 200C299.193 200 288 211.193 288 225C288 238.807 299.193 250 313 250" stroke="black" stroke-width="3"/>
<path d="M285 200C271.193 200 260 211.193 260 225C260 238.807 271.193 250 285 250" stroke="black" stroke-width="3"/>
<path d="M325 200C311.193 200 300 211.193 300 225C300 238.807 311.193 250 325 250" stroke="black" stroke-width="3"/>
<path d="M350 200C336.193 200 325 211.193 325 225C325 238.807 336.193 250 350 250" stroke="black" stroke-width="3"/>
<path d="M363 200C349.193 200 338 211.193 338 225C338 238.807 349.193 250 363 250" stroke="black" stroke-width="3"/>
<path d="M335 200C321.193 200 310 211.193 310 225C310 238.807 321.193 250 335 250" stroke="black" stroke-width="3"/>
<path d="M375 200C361.193 200 350 211.193 350 225C350 238.807 361.193 250 375 250" stroke="black" stroke-width="3"/>
<path d="M400 200C386.193 200 375 211.193 375 225C375 238.807 386.193 250 400 250" stroke="black" stroke-width="3"/>
<path d="M413 200C399.193 200 388 211.193 388 225C388 238.807 399.193 250 413 250" stroke="black" stroke-width="3"/>
<path d="M385 200C371.193 200 360 211.193 360 225C360 238.807 371.193 250 385 250" stroke="black" stroke-width="3"/>
<path d="M25 100C11.1929 100 3.39263e-06 111.193 2.18557e-06 125C9.78513e-07 138.807 11.1929 150 25 150" stroke="black" stroke-width="3"/>
<path d="M16 100C2.19289 100 -9 111.193 -9 125C-9 138.807 2.19288 150 16 150" stroke="black" stroke-width="3"/>
<path d="M6 100C-7.80711 100 -19 111.193 -19 125C-19 138.807 -7.80712 150 6 150" stroke="black" stroke-width="3"/>
<path d="M50 100C36.1929 100 25 111.193 25 125C25 138.807 36.1929 150 50 150" stroke="black" stroke-width="3"/>
<path d="M63 100C49.1929 100 38 111.193 38 125C38 138.807 49.1929 150 63 150" stroke="black" stroke-width="3"/>
<path d="M35 100C21.1929 100 10 111.193 10 125C10 138.807 21.1929 150 35 150" stroke="black" stroke-width="3"/>
<path d="M75 100C61.1929 100 50 111.193 50 125C50 138.807 61.1929 150 75 150" stroke="black" stroke-width="3"/>
<path d="M100 100C86.1929 100 75 111.193 75 125C75 138.807 86.1929 150 100 150" stroke="black" stroke-width="3"/>
<path d="M113 100C99.1929 100 88 111.193 88 125C88 138.807 99.1929 150 113 150" stroke="black" stroke-width="3"/>
<path d="M85 100C71.1929 100 60 111.193 60 125C60 138.807 71.1929 150 85 150" stroke="black" stroke-width="3"/>
<path d="M125 100C111.193 100 100 111.193 100 125C100 138.807 111.193 150 125 150" stroke="black" stroke-width="3"/>
<path d="M150 100C136.193 100 125 111.193 125 125C125 138.807 136.193 150 150 150" stroke="black" stroke-width="3"/>
<path d="M163 100C149.193 100 138 111.193 138 125C138 138.807 149.193 150 163 150" stroke="black" stroke-width="3"/>
<path d="M135 100C121.193 100 110 111.193 110 125C110 138.807 121.193 150 135 150" stroke="black" stroke-width="3"/>
<path d="M175 100C161.193 100 150 111.193 150 125C150 138.807 161.193 150 175 150" stroke="black" stroke-width="3"/>
<path d="M200 100C186.193 100 175 111.193 175 125C175 138.807 186.193 150 200 150" stroke="black" stroke-width="3"/>
<path d="M213 100C199.193 100 188 111.193 188 125C188 138.807 199.193 150 213 150" stroke="black" stroke-width="3"/>
<path d="M185 100C171.193 100 160 111.193 160 125C160 138.807 171.193 150 185 150" stroke="black" stroke-width="3"/>
<path d="M225 100C211.193 100 200 111.193 200 125C200 138.807 211.193 150 225 150" stroke="black" stroke-width="3"/>
<path d="M250 100C236.193 100 225 111.193 225 125C225 138.807 236.193 150 250 150" stroke="black" stroke-width="3"/>
<path d="M263 100C249.193 100 238 111.193 238 125C238 138.807 249.193 150 263 150" stroke="black" stroke-width="3"/>
<path d="M235 100C221.193 100 210 111.193 210 125C210 138.807 221.193 150 235 150" stroke="black" stroke-width="3"/>
<path d="M275 100C261.193 100 250 111.193 250 125C250 138.807 261.193 150 275 150" stroke="black" stroke-width="3"/>
<path d="M300 100C286.193 100 275 111.193 275 125C275 138.807 286.193 150 300 150" stroke="black" stroke-width="3"/>
<path d="M313 100C299.193 100 288 111.193 288 125C288 138.807 299.193 150 313 150" stroke="black" stroke-width="3"/>
<path d="M285 100C271.193 100 260 111.193 260 125C260 138.807 271.193 150 285 150" stroke="black" stroke-width="3"/>
<path d="M325 100C311.193 100 300 111.193 300 125C300 138.807 311.193 150 325 150" stroke="black" stroke-width="3"/>
<path d="M350 100C336.193 100 325 111.193 325 125C325 138.807 336.193 150 350 150" stroke="black" stroke-width="3"/>
<path d="M363 100C349.193 100 338 111.193 338 125C338 138.807 349.193 150 363 150" stroke="black" stroke-width="3"/>
<path d="M335 100C321.193 100 310 111.193 310 125C310 138.807 321.193 150 335 150" stroke="black" stroke-width="3"/>
<path d="M375 100C361.193 100 350 111.193 350 125C350 138.807 361.193 150 375 150" stroke="black" stroke-width="3"/>
<path d="M400 100C386.193 100 375 111.193 375 125C375 138.807 386.193 150 400 150" stroke="black" stroke-width="3"/>
<path d="M413 100C399.193 100 388 111.193 388 125C388 138.807 399.193 150 413 150" stroke="black" stroke-width="3"/>
<path d="M385 100C371.193 100 360 111.193 360 125C360 138.807 371.193 150 385 150" stroke="black" stroke-width="3"/>
<path d="M25 0C11.1929 -1.20706e-06 3.39263e-06 11.1929 2.18557e-06 25C9.78513e-07 38.8071 11.1929 50 25 50" stroke="black" stroke-width="3"/>
<path d="M16 0C2.19289 -1.20706e-06 -9 11.1929 -9 25C-9 38.8071 2.19288 50 16 50" stroke="black" stroke-width="3"/>
<path d="M6 0C-7.80711 -1.20706e-06 -19 11.1929 -19 25C-19 38.8071 -7.80712 50 6 50" stroke="black" stroke-width="3"/>
<path d="M50 0C36.1929 -1.20706e-06 25 11.1929 25 25C25 38.8071 36.1929 50 50 50" stroke="black" stroke-width="3"/>
<path d="M63 0C49.1929 -1.20706e-06 38 11.1929 38 25C38 38.8071 49.1929 50 63 50" stroke="black" stroke-width="3"/>
<path d="M35 0C21.1929 -1.20706e-06 10 11.1929 10 25C10 38.8071 21.1929 50 35 50" stroke="black" stroke-width="3"/>
<path d="M75 0C61.1929 -1.20706e-06 50 11.1929 50 25C50 38.8071 61.1929 50 75 50" stroke="black" stroke-width="3"/>
<path d="M100 0C86.1929 -1.20706e-06 75 11.1929 75 25C75 38.8071 86.1929 50 100 50" stroke="black" stroke-width="3"/>
<path d="M113 0C99.1929 -1.20706e-06 88 11.1929 88 25C88 38.8071 99.1929 50 113 50" stroke="black" stroke-width="3"/>
<path d="M85 0C71.1929 -1.20706e-06 60 11.1929 60 25C60 38.8071 71.1929 50 85 50" stroke="black" stroke-width="3"/>
<path d="M125 0C111.193 -1.20706e-06 100 11.1929 100 25C100 38.8071 111.193 50 125 50" stroke="black" stroke-width="3"/>
<path d="M150 0C136.193 -1.20706e-06 125 11.1929 125 25C125 38.8071 136.193 50 150 50" stroke="black" stroke-width="3"/>
<path d="M163 0C149.193 -1.20706e-06 138 11.1929 138 25C138 38.8071 149.193 50 163 50" stroke="black" stroke-width="3"/>
<path d="M135 0C121.193 -1.20706e-06 110 11.1929 110 25C110 38.8071 121.193 50 135 50" stroke="black" stroke-width="3"/>
<path d="M175 0C161.193 -1.20706e-06 150 11.1929 150 25C150 38.8071 161.193 50 175 50" stroke="black" stroke-width="3"/>
<path d="M200 0C186.193 -1.20706e-06 175 11.1929 175 25C175 38.8071 186.193 50 200 50" stroke="black" stroke-width="3"/>
<path d="M213 0C199.193 -1.20706e-06 188 11.1929 188 25C188 38.8071 199.193 50 213 50" stroke="black" stroke-width="3"/>
<path d="M185 0C171.193 -1.20706e-06 160 11.1929 160 25C160 38.8071 171.193 50 185 50" stroke="black" stroke-width="3"/>
<path d="M225 0C211.193 -1.20706e-06 200 11.1929 200 25C200 38.8071 211.193 50 225 50" stroke="black" stroke-width="3"/>
<path d="M250 0C236.193 -1.20706e-06 225 11.1929 225 25C225 38.8071 236.193 50 250 50" stroke="black" stroke-width="3"/>
<path d="M263 0C249.193 -1.20706e-06 238 11.1929 238 25C238 38.8071 249.193 50 263 50" stroke="black" stroke-width="3"/>
<path d="M235 0C221.193 -1.20706e-06 210 11.1929 210 25C210 38.8071 221.193 50 235 50" stroke="black" stroke-width="3"/>
<path d="M275 0C261.193 -1.20706e-06 250 11.1929 250 25C250 38.8071 261.193 50 275 50" stroke="black" stroke-width="3"/>
<path d="M300 0C286.193 -1.20706e-06 275 11.1929 275 25C275 38.8071 286.193 50 300 50" stroke="black" stroke-width="3"/>
<path d="M313 0C299.193 -1.20706e-06 288 11.1929 288 25C288 38.8071 299.193 50 313 50" stroke="black" stroke-width="3"/>
<path d="M285 0C271.193 -1.20706e-06 260 11.1929 260 25C260 38.8071 271.193 50 285 50" stroke="black" stroke-width="3"/>
<path d="M325 0C311.193 -1.20706e-06 300 11.1929 300 25C300 38.8071 311.193 50 325 50" stroke="black" stroke-width="3"/>
<path d="M350 0C336.193 -1.20706e-06 325 11.1929 325 25C325 38.8071 336.193 50 350 50" stroke="black" stroke-width="3"/>
<path d="M363 0C349.193 -1.20706e-06 338 11.1929 338 25C338 38.8071 349.193 50 363 50" stroke="black" stroke-width="3"/>
<path d="M335 0C321.193 -1.20706e-06 310 11.1929 310 25C310 38.8071 321.193 50 335 50" stroke="black" stroke-width="3"/>
<path d="M375 0C361.193 -1.20706e-06 350 11.1929 350 25C350 38.8071 361.193 50 375 50" stroke="black" stroke-width="3"/>
<path d="M400 0C386.193 -1.20706e-06 375 11.1929 375 25C375 38.8071 386.193 50 400 50" stroke="black" stroke-width="3"/>
<path d="M413 0C399.193 -1.20706e-06 388 11.1929 388 25C388 38.8071 399.193 50 413 50" stroke="black" stroke-width="3"/>
<path d="M385 0C371.193 -1.20706e-06 360 11.1929 360 25C360 38.8071 371.193 50 385 50" stroke="black" stroke-width="3"/>
<path d="M-4 399L392 399" stroke="black" stroke-width="2" stroke-linecap="square"/>
<path d="M6 1L392 1" stroke="black" stroke-width="2" stroke-linecap="square"/>
</g>
<defs>
<clipPath id="clip0_1_68">
<rect width="400" height="400" fill="white"/>
</clipPath>
</defs>
</svg>
