<svg width="400" height="400" viewBox="0 0 400 400" fill="none" xmlns="http://www.w3.org/2000/svg">
<g clip-path="url(#clip0_1_394)">
<rect width="400" height="400" fill="white"/>
<line x1="200" y1="199" x2="600" y2="199" stroke="black" stroke-width="2"/>
<line y1="-1" x2="400" y2="-1" transform="matrix(-1 0 0 1 202 200)" stroke="black" stroke-width="2"/>
<line x1="200.087" y1="199.066" x2="598.565" y2="233.928" stroke="black" stroke-width="2"/>
<line x1="200.174" y1="199.077" x2="594.097" y2="268.536" stroke="black" stroke-width="2"/>
<line x1="200.259" y1="199.096" x2="586.629" y2="302.624" stroke="black" stroke-width="2"/>
<line x1="200.342" y1="199.122" x2="576.219" y2="335.93" stroke="black" stroke-width="2"/>
<line x1="200.423" y1="199.156" x2="562.946" y2="368.203" stroke="black" stroke-width="2"/>
<line x1="200.5" y1="199.196" x2="546.91" y2="399.196" stroke="black" stroke-width="2"/>
<line x1="200.574" y1="199.243" x2="528.234" y2="428.673" stroke="black" stroke-width="2"/>
<line x1="200.643" y1="199.296" x2="507.061" y2="456.411" stroke="black" stroke-width="2"/>
<line x1="200.707" y1="199.355" x2="483.55" y2="482.197" stroke="black" stroke-width="2"/>
<line x1="200.766" y1="199.419" x2="457.881" y2="505.837" stroke="black" stroke-width="2"/>
<line x1="200.819" y1="199.488" x2="430.25" y2="527.149" stroke="black" stroke-width="2"/>
<line x1="200.866" y1="199.562" x2="400.866" y2="545.972" stroke="black" stroke-width="2"/>
<line x1="200.906" y1="199.639" x2="369.954" y2="562.162" stroke="black" stroke-width="2"/>
<line x1="200.94" y1="199.72" x2="337.748" y2="575.597" stroke="black" stroke-width="2"/>
<line x1="200.866" y1="199.562" x2="400.866" y2="545.972" stroke="black" stroke-width="2"/>
<line x1="200.966" y1="199.803" x2="304.494" y2="586.173" stroke="black" stroke-width="2"/>
<line x1="200.985" y1="199.888" x2="270.444" y2="593.811" stroke="black" stroke-width="2"/>
<line x1="200.996" y1="199.975" x2="235.858" y2="598.453" stroke="black" stroke-width="2"/>
<line x1="201" y1="200.062" x2="201" y2="600.062" stroke="black" stroke-width="2"/>
<line y1="-1" x2="400" y2="-1" transform="matrix(-0.996195 0.0871557 0.0871557 0.996195 202 200.062)" stroke="black" stroke-width="2"/>
<line y1="-1" x2="400" y2="-1" transform="matrix(-0.984808 0.173648 0.173648 0.984808 202 200.062)" stroke="black" stroke-width="2"/>
<line y1="-1" x2="400" y2="-1" transform="matrix(-0.965926 0.258819 0.258819 0.965926 202 200.062)" stroke="black" stroke-width="2"/>
<line y1="-1" x2="400" y2="-1" transform="matrix(-0.939693 0.34202 0.34202 0.939693 202 200.062)" stroke="black" stroke-width="2"/>
<line y1="-1" x2="400" y2="-1" transform="matrix(-0.906308 0.422618 0.422618 0.906308 202 200.062)" stroke="black" stroke-width="2"/>
<line y1="-1" x2="400" y2="-1" transform="matrix(-0.866025 0.5 0.5 0.866025 202 200.062)" stroke="black" stroke-width="2"/>
<line y1="-1" x2="400" y2="-1" transform="matrix(-0.819152 0.573576 0.573576 0.819152 202 200.062)" stroke="black" stroke-width="2"/>
<line y1="-1" x2="400" y2="-1" transform="matrix(-0.766044 0.642788 0.642788 0.766044 202 200.062)" stroke="black" stroke-width="2"/>
<line y1="-1" x2="400" y2="-1" transform="matrix(-0.707107 0.707107 0.707107 0.707107 202 200.062)" stroke="black" stroke-width="2"/>
<line y1="-1" x2="400" y2="-1" transform="matrix(-0.642788 0.766044 0.766044 0.642788 202 200.062)" stroke="black" stroke-width="2"/>
<line y1="-1" x2="400" y2="-1" transform="matrix(-0.573576 0.819152 0.819152 0.573576 202 200.062)" stroke="black" stroke-width="2"/>
<line y1="-1" x2="400" y2="-1" transform="matrix(-0.5 0.866025 0.866025 0.5 202 200.062)" stroke="black" stroke-width="2"/>
<line y1="-1" x2="400" y2="-1" transform="matrix(-0.422618 0.906308 0.906308 0.422618 202 200.062)" stroke="black" stroke-width="2"/>
<line y1="-1" x2="400" y2="-1" transform="matrix(-0.34202 0.939693 0.939693 0.34202 202 200.062)" stroke="black" stroke-width="2"/>
<line y1="-1" x2="400" y2="-1" transform="matrix(-0.5 0.866025 0.866025 0.5 202 200.062)" stroke="black" stroke-width="2"/>
<line y1="-1" x2="400" y2="-1" transform="matrix(-0.258819 0.965926 0.965926 0.258819 202 200.062)" stroke="black" stroke-width="2"/>
<line y1="-1" x2="400" y2="-1" transform="matrix(-0.173648 0.984808 0.984808 0.173648 202 200.062)" stroke="black" stroke-width="2"/>
<line y1="-1" x2="400" y2="-1" transform="matrix(-0.0871557 0.996195 0.996195 0.0871557 202 200.062)" stroke="black" stroke-width="2"/>
<line y1="-1" x2="400" y2="-1" transform="matrix(0 1 1 0 202 200.062)" stroke="black" stroke-width="2"/>
<line y1="-1" x2="400" y2="-1" transform="matrix(1 0 0 -1 200 198.062)" stroke="black" stroke-width="2"/>
<line x1="202" y1="199.062" x2="-198" y2="199.062" stroke="black" stroke-width="2"/>
<line y1="-1" x2="400" y2="-1" transform="matrix(0.996195 -0.0871557 -0.0871557 -0.996195 200 198)" stroke="black" stroke-width="2"/>
<line y1="-1" x2="400" y2="-1" transform="matrix(0.984808 -0.173648 -0.173648 -0.984808 200 198)" stroke="black" stroke-width="2"/>
<line y1="-1" x2="400" y2="-1" transform="matrix(0.965926 -0.258819 -0.258819 -0.965926 200 198)" stroke="black" stroke-width="2"/>
<line y1="-1" x2="400" y2="-1" transform="matrix(0.939693 -0.34202 -0.34202 -0.939693 200 198)" stroke="black" stroke-width="2"/>
<line y1="-1" x2="400" y2="-1" transform="matrix(0.906308 -0.422618 -0.422618 -0.906308 200 198)" stroke="black" stroke-width="2"/>
<line y1="-1" x2="400" y2="-1" transform="matrix(0.866025 -0.5 -0.5 -0.866025 200 198)" stroke="black" stroke-width="2"/>
<line y1="-1" x2="400" y2="-1" transform="matrix(0.819152 -0.573576 -0.573576 -0.819152 200 198)" stroke="black" stroke-width="2"/>
<line y1="-1" x2="400" y2="-1" transform="matrix(0.766044 -0.642788 -0.642788 -0.766044 200 198)" stroke="black" stroke-width="2"/>
<line y1="-1" x2="400" y2="-1" transform="matrix(0.707107 -0.707107 -0.707107 -0.707107 200 198)" stroke="black" stroke-width="2"/>
<line y1="-1" x2="400" y2="-1" transform="matrix(0.642788 -0.766044 -0.766044 -0.642788 200 198)" stroke="black" stroke-width="2"/>
<line y1="-1" x2="400" y2="-1" transform="matrix(0.573576 -0.819152 -0.819152 -0.573576 200 198)" stroke="black" stroke-width="2"/>
<line y1="-1" x2="400" y2="-1" transform="matrix(0.5 -0.866025 -0.866025 -0.5 200 198)" stroke="black" stroke-width="2"/>
<line y1="-1" x2="400" y2="-1" transform="matrix(0.422618 -0.906308 -0.906308 -0.422618 200 198)" stroke="black" stroke-width="2"/>
<line y1="-1" x2="400" y2="-1" transform="matrix(0.34202 -0.939693 -0.939693 -0.34202 200 198)" stroke="black" stroke-width="2"/>
<line y1="-1" x2="400" y2="-1" transform="matrix(0.5 -0.866025 -0.866025 -0.5 200 198)" stroke="black" stroke-width="2"/>
<line y1="-1" x2="400" y2="-1" transform="matrix(0.258819 -0.965926 -0.965926 -0.258819 200 198)" stroke="black" stroke-width="2"/>
<line y1="-1" x2="400" y2="-1" transform="matrix(0.173648 -0.984808 -0.984808 -0.173648 200 198)" stroke="black" stroke-width="2"/>
<line y1="-1" x2="400" y2="-1" transform="matrix(0.0871557 -0.996195 -0.996195 -0.0871557 200 198)" stroke="black" stroke-width="2"/>
<line y1="-1" x2="400" y2="-1" transform="matrix(0 -1 -1 0 200 198)" stroke="black" stroke-width="2"/>
<line x1="201.913" y1="198.996" x2="-196.565" y2="164.134" stroke="black" stroke-width="2"/>
<line x1="201.826" y1="198.985" x2="-192.097" y2="129.526" stroke="black" stroke-width="2"/>
<line x1="201.741" y1="198.966" x2="-184.629" y2="95.4383" stroke="black" stroke-width="2"/>
<line x1="201.658" y1="198.94" x2="-174.219" y2="62.1316" stroke="black" stroke-width="2"/>
<line x1="201.577" y1="198.906" x2="-160.946" y2="29.859" stroke="black" stroke-width="2"/>
<line x1="201.5" y1="198.866" x2="-144.91" y2="-1.13399" stroke="black" stroke-width="2"/>
<line x1="201.426" y1="198.819" x2="-126.234" y2="-30.6114" stroke="black" stroke-width="2"/>
<line x1="201.357" y1="198.766" x2="-105.061" y2="-58.349" stroke="black" stroke-width="2"/>
<line x1="201.293" y1="198.707" x2="-81.5498" y2="-84.1356" stroke="black" stroke-width="2"/>
<line x1="201.234" y1="198.643" x2="-55.8811" y2="-107.775" stroke="black" stroke-width="2"/>
<line x1="201.181" y1="198.574" x2="-28.2497" y2="-129.087" stroke="black" stroke-width="2"/>
<line x1="201.134" y1="198.5" x2="1.13399" y2="-147.91" stroke="black" stroke-width="2"/>
<line x1="201.094" y1="198.423" x2="32.0464" y2="-164.101" stroke="black" stroke-width="2"/>
<line x1="201.06" y1="198.342" x2="64.2523" y2="-177.535" stroke="black" stroke-width="2"/>
<line x1="201.134" y1="198.5" x2="1.13399" y2="-147.91" stroke="black" stroke-width="2"/>
<line x1="201.034" y1="198.259" x2="97.5065" y2="-188.112" stroke="black" stroke-width="2"/>
<line x1="201.015" y1="198.174" x2="131.556" y2="-195.749" stroke="black" stroke-width="2"/>
<line x1="201.004" y1="198.087" x2="166.142" y2="-200.391" stroke="black" stroke-width="2"/>
<line x1="201" y1="198" x2="201" y2="-202" stroke="black" stroke-width="2"/>
</g>
<defs>
<clipPath id="clip0_1_394">
<rect width="400" height="400" fill="white"/>
</clipPath>
</defs>
</svg>
