<svg width="400" height="800" viewBox="0 0 400 800" fill="none" xmlns="http://www.w3.org/2000/svg">
<g clip-path="url(#clip0_27_13)">
<path d="M396.052 703.09V896.909L201 994.409L5.94824 896.909V703.09L201 605.59L396.052 703.09Z" stroke="black" stroke-width="10"/>
<path d="M596.052 403.09V596.909L401 694.409L205.948 596.909V403.09L401 305.59L596.052 403.09Z" stroke="black" stroke-width="10"/>
<path d="M396.052 503.09V696.909L201 794.409L5.94824 696.909V503.09L201 405.59L396.052 503.09Z" stroke="black" stroke-width="10"/>
<path d="M370.938 715.589V884.41L200.999 969.409L31.0625 884.41V715.589L201 630.59L370.938 715.589Z" stroke="black" stroke-width="10"/>
<path d="M570.938 415.589V584.41L400.999 669.409L231.062 584.41V415.589L401 330.59L570.938 415.589Z" stroke="black" stroke-width="10"/>
<path d="M370.938 515.589V684.41L200.999 769.409L31.0625 684.41V515.589L201 430.59L370.938 515.589Z" stroke="black" stroke-width="10"/>
<path d="M370.938 715.589V884.41L200.999 969.409L31.0625 884.41V715.589L201 630.59L370.938 715.589Z" stroke="black" stroke-width="10"/>
<path d="M570.938 415.589V584.41L400.999 669.409L231.062 584.41V415.589L401 330.59L570.938 415.589Z" stroke="black" stroke-width="10"/>
<path d="M370.938 515.589V684.41L200.999 769.409L31.0625 684.41V515.589L201 430.59L370.938 515.589Z" stroke="black" stroke-width="10"/>
<path d="M346.756 728.092V871.907L201.5 944.411L56.2441 871.907V728.092L201.5 655.588L346.756 728.092Z" stroke="black" stroke-width="10"/>
<path d="M546.756 428.092V571.907L401.5 644.411L256.244 571.907V428.092L401.5 355.588L546.756 428.092Z" stroke="black" stroke-width="10"/>
<path d="M346.756 528.092V671.907L201.5 744.411L56.2441 671.907V528.092L201.5 455.588L346.756 528.092Z" stroke="black" stroke-width="10"/>
<path d="M321.641 740.591V859.408L201.5 919.411L81.3594 859.408V740.591L201.5 680.588L321.641 740.591Z" stroke="black" stroke-width="10"/>
<path d="M521.641 440.591V559.408L401.5 619.411L281.359 559.408V440.591L401.5 380.588L521.641 440.591Z" stroke="black" stroke-width="10"/>
<path d="M321.641 540.591V659.408L201.5 719.411L81.3594 659.408V540.591L201.5 480.588L321.641 540.591Z" stroke="black" stroke-width="10"/>
<path d="M296.526 753.091V846.908L201.5 894.409L106.474 846.908V753.091L201.5 705.59L296.526 753.091Z" stroke="black" stroke-width="10"/>
<path d="M496.526 453.091V546.908L401.5 594.409L306.474 546.908V453.091L401.5 405.59L496.526 453.091Z" stroke="black" stroke-width="10"/>
<path d="M296.526 553.091V646.908L201.5 694.409L106.474 646.908V553.091L201.5 505.59L296.526 553.091Z" stroke="black" stroke-width="10"/>
<path d="M271.411 765.588V834.411L201.5 869.408L131.589 834.411V765.588L201.5 730.591L271.411 765.588Z" stroke="black" stroke-width="10"/>
<path d="M471.411 465.588V534.411L401.5 569.408L331.589 534.411V465.588L401.5 430.591L471.411 465.588Z" stroke="black" stroke-width="10"/>
<path d="M271.411 565.588V634.411L201.5 669.408L131.589 634.411V565.588L201.5 530.591L271.411 565.588Z" stroke="black" stroke-width="10"/>
<path d="M246.229 778.096V821.903L201 844.414L155.771 821.903V778.096L201 755.585L246.229 778.096Z" stroke="black" stroke-width="10"/>
<path d="M446.229 478.096V521.903L401 544.414L355.771 521.903V478.096L401 455.585L446.229 478.096Z" stroke="black" stroke-width="10"/>
<path d="M246.229 578.096V621.903L201 644.414L155.771 621.903V578.096L201 555.585L246.229 578.096Z" stroke="black" stroke-width="10"/>
<path d="M221.114 790.596V809.403L201 819.414L180.886 809.403V790.596L201 780.585L221.114 790.596Z" stroke="black" stroke-width="10"/>
<path d="M421.114 490.596V509.403L401 519.414L380.886 509.403V490.596L401 480.585L421.114 490.596Z" stroke="black" stroke-width="10"/>
<path d="M221.114 590.596V609.403L201 619.414L180.886 609.403V590.596L201 580.585L221.114 590.596Z" stroke="black" stroke-width="10"/>
<path d="M596.052 395.91V202.091L401 104.591L205.948 202.091V395.91L401 493.41L596.052 395.91Z" stroke="black" stroke-width="10"/>
<path d="M570.938 383.411V214.59L400.999 129.591L231.062 214.59V383.411L401 468.41L570.938 383.411Z" stroke="black" stroke-width="10"/>
<path d="M570.938 383.411V214.59L400.999 129.591L231.062 214.59V383.411L401 468.41L570.938 383.411Z" stroke="black" stroke-width="10"/>
<path d="M546.756 370.908V227.093L401.5 154.589L256.244 227.093V370.908L401.5 443.412L546.756 370.908Z" stroke="black" stroke-width="10"/>
<path d="M521.641 358.409V239.592L401.5 179.589L281.359 239.592V358.409L401.5 418.412L521.641 358.409Z" stroke="black" stroke-width="10"/>
<path d="M396.052 295.91V102.091L201 4.59082L5.94824 102.091V295.91L201 393.41L396.052 295.91Z" stroke="black" stroke-width="10"/>
<path d="M496.526 345.909V252.092L401.5 204.591L306.474 252.092V345.909L401.5 393.41L496.526 345.909Z" stroke="black" stroke-width="10"/>
<path d="M370.938 283.411V114.59L200.999 29.5908L31.0625 114.59V283.411L201 368.41L370.938 283.411Z" stroke="black" stroke-width="10"/>
<path d="M370.938 283.411V114.59L200.999 29.5908L31.0625 114.59V283.411L201 368.41L370.938 283.411Z" stroke="black" stroke-width="10"/>
<path d="M471.411 333.412V264.589L401.5 229.592L331.589 264.589V333.412L401.5 368.409L471.411 333.412Z" stroke="black" stroke-width="10"/>
<path d="M346.756 270.908V127.093L201.5 54.5889L56.2441 127.093V270.908L201.5 343.412L346.756 270.908Z" stroke="black" stroke-width="10"/>
<path d="M446.229 320.904V277.097L401 254.586L355.771 277.097V320.904L401 343.415L446.229 320.904Z" stroke="black" stroke-width="10"/>
<path d="M321.641 258.409V139.592L201.5 79.5889L81.3594 139.592V258.409L201.5 318.412L321.641 258.409Z" stroke="black" stroke-width="10"/>
<path d="M421.114 308.404V289.597L401 279.586L380.886 289.597V308.404L401 318.415L421.114 308.404Z" stroke="black" stroke-width="10"/>
<path d="M296.526 245.909V152.092L201.5 104.591L106.474 152.092V245.909L201.5 293.41L296.526 245.909Z" stroke="black" stroke-width="10"/>
<path d="M271.411 233.412V164.589L201.5 129.592L131.589 164.589V233.412L201.5 268.409L271.411 233.412Z" stroke="black" stroke-width="10"/>
<path d="M246.229 220.904V177.097L201 154.586L155.771 177.097V220.904L201 243.415L246.229 220.904Z" stroke="black" stroke-width="10"/>
<path d="M221.114 208.404V189.597L201 179.586L180.886 189.597V208.404L201 218.415L221.114 208.404Z" stroke="black" stroke-width="10"/>
<path d="M396.052 95.9102V-97.9092L201 -195.409L5.94824 -97.9092V95.9102L201 193.41L396.052 95.9102Z" stroke="black" stroke-width="10"/>
<path d="M370.938 83.4111V-85.4102L200.999 -170.409L31.0625 -85.4102V83.4111L201 168.41L370.938 83.4111Z" stroke="black" stroke-width="10"/>
<path d="M370.938 83.4111V-85.4102L200.999 -170.409L31.0625 -85.4102V83.4111L201 168.41L370.938 83.4111Z" stroke="black" stroke-width="10"/>
<path d="M346.756 70.9082V-72.9072L201.5 -145.411L56.2441 -72.9072V70.9082L201.5 143.412L346.756 70.9082Z" stroke="black" stroke-width="10"/>
<path d="M321.641 58.4092V-60.4082L201.5 -120.411L81.3594 -60.4082V58.4092L201.5 118.412L321.641 58.4092Z" stroke="black" stroke-width="10"/>
<path d="M296.526 45.9092V-47.9082L201.5 -95.4092L106.474 -47.9082V45.9092L201.5 93.4102L296.526 45.9092Z" stroke="black" stroke-width="10"/>
<path d="M271.411 33.4121V-35.4111L201.5 -70.4082L131.589 -35.4111V33.4121L201.5 68.4092L271.411 33.4121Z" stroke="black" stroke-width="10"/>
<path d="M246.229 20.9043V-22.9033L201 -45.4141L155.771 -22.9033V20.9043L201 43.415L246.229 20.9043Z" stroke="black" stroke-width="10"/>
<path d="M221.114 8.4043V-10.4033L201 -20.4141L180.886 -10.4033V8.4043L201 18.415L221.114 8.4043Z" stroke="black" stroke-width="10"/>
<path d="M195.052 394.91V201.091L0 103.591L-195.052 201.091V394.91L0 492.41L195.052 394.91Z" stroke="black" stroke-width="10"/>
<path d="M169.938 382.411V213.59L-0.000976562 128.591L-169.938 213.59V382.411L0 467.41L169.938 382.411Z" stroke="black" stroke-width="10"/>
<path d="M145.756 369.908V226.093L0.5 153.589L-144.756 226.093V369.908L0.5 442.412L145.756 369.908Z" stroke="black" stroke-width="10"/>
<path d="M120.641 357.409V238.592L0.5 178.589L-119.641 238.592V357.409L0.5 417.412L120.641 357.409Z" stroke="black" stroke-width="10"/>
<path d="M95.5264 344.909V251.092L0.5 203.591L-94.5264 251.092V344.909L0.5 392.41L95.5264 344.909Z" stroke="black" stroke-width="10"/>
<path d="M70.4111 332.412V263.589L0.5 228.592L-69.4111 263.589V332.412L0.5 367.409L70.4111 332.412Z" stroke="black" stroke-width="10"/>
<path d="M45.2295 319.904V276.097L0 253.586L-45.2295 276.097V319.904L0 342.415L45.2295 319.904Z" stroke="black" stroke-width="10"/>
<path d="M20.1143 307.404V288.597L0 278.586L-20.1143 288.597V307.404L0 317.415L20.1143 307.404Z" stroke="black" stroke-width="10"/>
<path d="M195.052 404.09V597.909L0 695.409L-195.052 597.909V404.09L0 306.59L195.052 404.09Z" stroke="black" stroke-width="10"/>
<path d="M169.938 416.589V585.41L-0.000976562 670.409L-169.938 585.41V416.589L0 331.59L169.938 416.589Z" stroke="black" stroke-width="10"/>
<path d="M145.756 429.092V572.907L0.5 645.411L-144.756 572.907V429.092L0.5 356.588L145.756 429.092Z" stroke="black" stroke-width="10"/>
<path d="M120.641 441.591V560.408L0.5 620.411L-119.641 560.408V441.591L0.5 381.588L120.641 441.591Z" stroke="black" stroke-width="10"/>
<path d="M95.5264 454.091V547.908L0.5 595.409L-94.5264 547.908V454.091L0.5 406.59L95.5264 454.091Z" stroke="black" stroke-width="10"/>
<path d="M70.4111 466.588V535.411L0.5 570.408L-69.4111 535.411V466.588L0.5 431.591L70.4111 466.588Z" stroke="black" stroke-width="10"/>
<path d="M45.2295 479.096V522.903L0 545.414L-45.2295 522.903V479.096L0 456.585L45.2295 479.096Z" stroke="black" stroke-width="10"/>
<path d="M20.1143 491.596V510.403L0 520.414L-20.1143 510.403V491.596L0 481.585L20.1143 491.596Z" stroke="black" stroke-width="10"/>
</g>
<defs>
<clipPath id="clip0_27_13">
<rect width="400" height="800" fill="white"/>
</clipPath>
</defs>
</svg>
