<svg width="405" height="800" viewBox="0 0 405 800" fill="none" xmlns="http://www.w3.org/2000/svg">
<g clip-path="url(#clip0_27_13)">
<path d="M399.052 703.09V896.909L204 994.409L8.94824 896.909V703.09L204 605.59L399.052 703.09Z" stroke="black" stroke-width="10"/>
<path d="M599.052 403.09V596.909L404 694.409L208.948 596.909V403.09L404 305.59L599.052 403.09Z" stroke="black" stroke-width="10"/>
<path d="M399.052 503.09V696.909L204 794.409L8.94824 696.909V503.09L204 405.59L399.052 503.09Z" stroke="black" stroke-width="10"/>
<path d="M373.938 715.589V884.41L203.999 969.409L34.0625 884.41V715.589L204 630.59L373.938 715.589Z" stroke="black" stroke-width="10"/>
<path d="M573.938 415.589V584.41L403.999 669.409L234.062 584.41V415.589L404 330.59L573.938 415.589Z" stroke="black" stroke-width="10"/>
<path d="M373.938 515.589V684.41L203.999 769.409L34.0625 684.41V515.589L204 430.59L373.938 515.589Z" stroke="black" stroke-width="10"/>
<path d="M373.938 715.589V884.41L203.999 969.409L34.0625 884.41V715.589L204 630.59L373.938 715.589Z" stroke="black" stroke-width="10"/>
<path d="M573.938 415.589V584.41L403.999 669.409L234.062 584.41V415.589L404 330.59L573.938 415.589Z" stroke="black" stroke-width="10"/>
<path d="M373.938 515.589V684.41L203.999 769.409L34.0625 684.41V515.589L204 430.59L373.938 515.589Z" stroke="black" stroke-width="10"/>
<path d="M349.756 728.092V871.907L204.5 944.411L59.2441 871.907V728.092L204.5 655.588L349.756 728.092Z" stroke="black" stroke-width="10"/>
<path d="M549.756 428.092V571.907L404.5 644.411L259.244 571.907V428.092L404.5 355.588L549.756 428.092Z" stroke="black" stroke-width="10"/>
<path d="M349.756 528.092V671.907L204.5 744.411L59.2441 671.907V528.092L204.5 455.588L349.756 528.092Z" stroke="black" stroke-width="10"/>
<path d="M324.641 740.591V859.408L204.5 919.411L84.3594 859.408V740.591L204.5 680.588L324.641 740.591Z" stroke="black" stroke-width="10"/>
<path d="M524.641 440.591V559.408L404.5 619.411L284.359 559.408V440.591L404.5 380.588L524.641 440.591Z" stroke="black" stroke-width="10"/>
<path d="M324.641 540.591V659.408L204.5 719.411L84.3594 659.408V540.591L204.5 480.588L324.641 540.591Z" stroke="black" stroke-width="10"/>
<path d="M299.526 753.091V846.908L204.5 894.409L109.474 846.908V753.091L204.5 705.59L299.526 753.091Z" stroke="black" stroke-width="10"/>
<path d="M499.526 453.091V546.908L404.5 594.409L309.474 546.908V453.091L404.5 405.59L499.526 453.091Z" stroke="black" stroke-width="10"/>
<path d="M299.526 553.091V646.908L204.5 694.409L109.474 646.908V553.091L204.5 505.59L299.526 553.091Z" stroke="black" stroke-width="10"/>
<path d="M274.411 765.588V834.411L204.5 869.408L134.589 834.411V765.588L204.5 730.591L274.411 765.588Z" stroke="black" stroke-width="10"/>
<path d="M474.411 465.588V534.411L404.5 569.408L334.589 534.411V465.588L404.5 430.591L474.411 465.588Z" stroke="black" stroke-width="10"/>
<path d="M274.411 565.588V634.411L204.5 669.408L134.589 634.411V565.588L204.5 530.591L274.411 565.588Z" stroke="black" stroke-width="10"/>
<path d="M249.229 778.096V821.903L204 844.414L158.771 821.903V778.096L204 755.585L249.229 778.096Z" stroke="black" stroke-width="10"/>
<path d="M449.229 478.096V521.903L404 544.414L358.771 521.903V478.096L404 455.585L449.229 478.096Z" stroke="black" stroke-width="10"/>
<path d="M249.229 578.096V621.903L204 644.414L158.771 621.903V578.096L204 555.585L249.229 578.096Z" stroke="black" stroke-width="10"/>
<path d="M224.114 790.596V809.403L204 819.414L183.886 809.403V790.596L204 780.585L224.114 790.596Z" stroke="black" stroke-width="10"/>
<path d="M424.114 490.596V509.403L404 519.414L383.886 509.403V490.596L404 480.585L424.114 490.596Z" stroke="black" stroke-width="10"/>
<path d="M224.114 590.596V609.403L204 619.414L183.886 609.403V590.596L204 580.585L224.114 590.596Z" stroke="black" stroke-width="10"/>
<path d="M599.052 395.91V202.091L404 104.591L208.948 202.091V395.91L404 493.41L599.052 395.91Z" stroke="black" stroke-width="10"/>
<path d="M573.938 383.411V214.59L403.999 129.591L234.062 214.59V383.411L404 468.41L573.938 383.411Z" stroke="black" stroke-width="10"/>
<path d="M573.938 383.411V214.59L403.999 129.591L234.062 214.59V383.411L404 468.41L573.938 383.411Z" stroke="black" stroke-width="10"/>
<path d="M549.756 370.908V227.093L404.5 154.589L259.244 227.093V370.908L404.5 443.412L549.756 370.908Z" stroke="black" stroke-width="10"/>
<path d="M524.641 358.409V239.592L404.5 179.589L284.359 239.592V358.409L404.5 418.412L524.641 358.409Z" stroke="black" stroke-width="10"/>
<path d="M399.052 295.91V102.091L204 4.59082L8.94824 102.091V295.91L204 393.41L399.052 295.91Z" stroke="black" stroke-width="10"/>
<path d="M499.526 345.909V252.092L404.5 204.591L309.474 252.092V345.909L404.5 393.41L499.526 345.909Z" stroke="black" stroke-width="10"/>
<path d="M373.938 283.411V114.59L203.999 29.5908L34.0625 114.59V283.411L204 368.41L373.938 283.411Z" stroke="black" stroke-width="10"/>
<path d="M373.938 283.411V114.59L203.999 29.5908L34.0625 114.59V283.411L204 368.41L373.938 283.411Z" stroke="black" stroke-width="10"/>
<path d="M474.411 333.412V264.589L404.5 229.592L334.589 264.589V333.412L404.5 368.409L474.411 333.412Z" stroke="black" stroke-width="10"/>
<path d="M349.756 270.908V127.093L204.5 54.5889L59.2441 127.093V270.908L204.5 343.412L349.756 270.908Z" stroke="black" stroke-width="10"/>
<path d="M449.229 320.904V277.097L404 254.586L358.771 277.097V320.904L404 343.415L449.229 320.904Z" stroke="black" stroke-width="10"/>
<path d="M324.641 258.409V139.592L204.5 79.5889L84.3594 139.592V258.409L204.5 318.412L324.641 258.409Z" stroke="black" stroke-width="10"/>
<path d="M424.114 308.404V289.597L404 279.586L383.886 289.597V308.404L404 318.415L424.114 308.404Z" stroke="black" stroke-width="10"/>
<path d="M299.526 245.909V152.092L204.5 104.591L109.474 152.092V245.909L204.5 293.41L299.526 245.909Z" stroke="black" stroke-width="10"/>
<path d="M274.411 233.412V164.589L204.5 129.592L134.589 164.589V233.412L204.5 268.409L274.411 233.412Z" stroke="black" stroke-width="10"/>
<path d="M249.229 220.904V177.097L204 154.586L158.771 177.097V220.904L204 243.415L249.229 220.904Z" stroke="black" stroke-width="10"/>
<path d="M224.114 208.404V189.597L204 179.586L183.886 189.597V208.404L204 218.415L224.114 208.404Z" stroke="black" stroke-width="10"/>
<path d="M399.052 95.9102V-97.9092L204 -195.409L8.94824 -97.9092V95.9102L204 193.41L399.052 95.9102Z" stroke="black" stroke-width="10"/>
<path d="M373.938 83.4111V-85.4102L203.999 -170.409L34.0625 -85.4102V83.4111L204 168.41L373.938 83.4111Z" stroke="black" stroke-width="10"/>
<path d="M373.938 83.4111V-85.4102L203.999 -170.409L34.0625 -85.4102V83.4111L204 168.41L373.938 83.4111Z" stroke="black" stroke-width="10"/>
<path d="M349.756 70.9082V-72.9072L204.5 -145.411L59.2441 -72.9072V70.9082L204.5 143.412L349.756 70.9082Z" stroke="black" stroke-width="10"/>
<path d="M324.641 58.4092V-60.4082L204.5 -120.411L84.3594 -60.4082V58.4092L204.5 118.412L324.641 58.4092Z" stroke="black" stroke-width="10"/>
<path d="M299.526 45.9092V-47.9082L204.5 -95.4092L109.474 -47.9082V45.9092L204.5 93.4102L299.526 45.9092Z" stroke="black" stroke-width="10"/>
<path d="M274.411 33.4121V-35.4111L204.5 -70.4082L134.589 -35.4111V33.4121L204.5 68.4092L274.411 33.4121Z" stroke="black" stroke-width="10"/>
<path d="M249.229 20.9043V-22.9033L204 -45.4141L158.771 -22.9033V20.9043L204 43.415L249.229 20.9043Z" stroke="black" stroke-width="10"/>
<path d="M224.114 8.4043V-10.4033L204 -20.4141L183.886 -10.4033V8.4043L204 18.415L224.114 8.4043Z" stroke="black" stroke-width="10"/>
<path d="M198.052 394.91V201.091L3 103.591L-192.052 201.091V394.91L3 492.41L198.052 394.91Z" stroke="black" stroke-width="10"/>
<path d="M172.938 382.411V213.59L2.99902 128.591L-166.938 213.59V382.411L3 467.41L172.938 382.411Z" stroke="black" stroke-width="10"/>
<path d="M148.756 369.908V226.093L3.5 153.589L-141.756 226.093V369.908L3.5 442.412L148.756 369.908Z" stroke="black" stroke-width="10"/>
<path d="M123.641 357.409V238.592L3.5 178.589L-116.641 238.592V357.409L3.5 417.412L123.641 357.409Z" stroke="black" stroke-width="10"/>
<path d="M98.5264 344.909V251.092L3.5 203.591L-91.5264 251.092V344.909L3.5 392.41L98.5264 344.909Z" stroke="black" stroke-width="10"/>
<path d="M73.4111 332.412V263.589L3.5 228.592L-66.4111 263.589V332.412L3.5 367.409L73.4111 332.412Z" stroke="black" stroke-width="10"/>
<path d="M48.2295 319.904V276.097L3 253.586L-42.2295 276.097V319.904L3 342.415L48.2295 319.904Z" stroke="black" stroke-width="10"/>
<path d="M23.1143 307.404V288.597L3 278.586L-17.1143 288.597V307.404L3 317.415L23.1143 307.404Z" stroke="black" stroke-width="10"/>
<path d="M198.052 404.09V597.909L3 695.409L-192.052 597.909V404.09L3 306.59L198.052 404.09Z" stroke="black" stroke-width="10"/>
<path d="M172.938 416.589V585.41L2.99902 670.409L-166.938 585.41V416.589L3 331.59L172.938 416.589Z" stroke="black" stroke-width="10"/>
<path d="M148.756 429.092V572.907L3.5 645.411L-141.756 572.907V429.092L3.5 356.588L148.756 429.092Z" stroke="black" stroke-width="10"/>
<path d="M123.641 441.591V560.408L3.5 620.411L-116.641 560.408V441.591L3.5 381.588L123.641 441.591Z" stroke="black" stroke-width="10"/>
<path d="M98.5264 454.091V547.908L3.5 595.409L-91.5264 547.908V454.091L3.5 406.59L98.5264 454.091Z" stroke="black" stroke-width="10"/>
<path d="M73.4111 466.588V535.411L3.5 570.408L-66.4111 535.411V466.588L3.5 431.591L73.4111 466.588Z" stroke="black" stroke-width="10"/>
<path d="M48.2295 479.096V522.903L3 545.414L-42.2295 522.903V479.096L3 456.585L48.2295 479.096Z" stroke="black" stroke-width="10"/>
<path d="M23.1143 491.596V510.403L3 520.414L-17.1143 510.403V491.596L3 481.585L23.1143 491.596Z" stroke="black" stroke-width="10"/>
</g>
<defs>
<clipPath id="clip0_27_13">
<rect width="405" height="800" fill="white"/>
</clipPath>
</defs>
</svg>
