<svg width="800" height="400" viewBox="0 0 800 400" fill="none" xmlns="http://www.w3.org/2000/svg">
<g clip-path="url(#clip0_19_166)">
<path d="M393.052 103.09V296.909L198 394.409L2.94824 296.909V103.09L198 5.58984L393.052 103.09Z" stroke="#FF006E" stroke-width="10"/>
<path d="M367.938 115.589V284.41L197.999 369.409L28.0625 284.41V115.589L198 30.5898L367.938 115.589Z" stroke="black" stroke-width="10"/>
<path d="M367.938 115.589V284.41L197.999 369.409L28.0625 284.41V115.589L198 30.5898L367.938 115.589Z" stroke="#FF006E" stroke-width="10"/>
<path d="M343.756 128.092V271.907L198.5 344.411L53.2441 271.907V128.092L198.5 55.5879L343.756 128.092Z" stroke="#FF006E" stroke-width="10"/>
<path d="M318.641 140.591V259.408L198.5 319.411L78.3594 259.408V140.591L198.5 80.5879L318.641 140.591Z" stroke="#FF006E" stroke-width="10"/>
<path d="M293.526 153.091V246.908L198.5 294.409L103.474 246.908V153.091L198.5 105.59L293.526 153.091Z" stroke="#FF006E" stroke-width="10"/>
<path d="M268.411 165.588V234.411L198.5 269.408L128.589 234.411V165.588L198.5 130.591L268.411 165.588Z" stroke="#FF006E" stroke-width="10"/>
<path d="M243.229 178.096V221.903L198 244.414L152.771 221.903V178.096L198 155.585L243.229 178.096Z" stroke="#FF006E" stroke-width="10"/>
<path d="M218.114 190.596V209.403L198 219.414L177.886 209.403V190.596L198 180.585L218.114 190.596Z" stroke="#FF006E" stroke-width="10"/>
<path d="M502.971 53.8587C519.499 53.8587 532.267 58.0824 541.274 66.5298C550.281 74.9773 554.784 87.2771 554.784 103.429C554.784 119.582 550.281 131.881 541.274 140.329C532.267 148.776 519.499 153 502.971 153C486.442 153 473.675 148.823 464.667 140.468C455.753 132.021 451.296 119.674 451.296 103.429C451.296 87.1843 455.753 74.8844 464.667 66.5298C473.675 58.0824 486.442 53.8587 502.971 53.8587ZM502.971 76.8338C496.378 76.8338 491.364 78.8297 487.928 82.8213C484.492 86.813 482.774 92.197 482.774 98.9736V107.885C482.774 114.662 484.492 120.046 487.928 124.037C491.364 128.029 496.378 130.025 502.971 130.025C509.563 130.025 514.578 128.029 518.013 124.037C521.542 120.046 523.306 114.662 523.306 107.885V98.9736C523.306 92.197 521.542 86.813 518.013 82.8213C514.578 78.8297 509.563 76.8338 502.971 76.8338Z" fill="#FF006E"/>
<path d="M621.264 55.5296C627.206 55.5296 632.499 56.922 637.142 59.7069C641.785 62.3989 645.406 66.1585 648.006 70.9856C650.606 75.7199 651.906 81.0576 651.906 86.9986V88.8088C651.906 94.7498 650.606 100.134 648.006 104.961C645.406 109.788 641.785 113.594 637.142 116.379C632.499 119.071 627.206 120.417 621.264 120.417H598.282V157H567.5V55.5296H621.264ZM598.282 97.9988H610.957C614.206 97.9988 616.621 97.1634 618.199 95.4925C619.871 93.8215 620.706 91.5472 620.706 88.6695V87.5556C620.706 84.5851 619.871 82.3108 618.199 80.7327C616.621 79.0617 614.206 78.2263 610.957 78.2263H598.282V97.9988Z" fill="#FF006E"/>
<path d="M523.124 251L519.085 237.493H485.517L481.478 251H450L488.415 151.746L519.706 151.28L555.716 251H523.124ZM491.924 216.05H512.678L502.649 181.935H502.092L491.924 216.05Z" fill="#FF006E"/>
<path d="M658.274 184.581C658.274 190.429 656.695 195.72 653.538 200.455C650.381 205.189 645.785 208.67 639.749 210.898L661.06 251H626.517L609.525 216.05H598.103V251H567.322V155.201H596.641H625.96C632.831 155.201 638.681 156.547 643.51 159.239C648.431 161.838 652.099 165.412 654.513 169.96C657.02 174.416 658.274 179.29 658.274 184.581ZM626.935 185.834C626.935 183.328 626.099 181.239 624.428 179.568C622.756 177.897 620.714 177.062 618.299 177.062H598.103V194.746H618.299C620.714 194.746 622.756 193.91 624.428 192.239C626.099 190.476 626.935 188.34 626.935 185.834Z" fill="#FF006E"/>
<path d="M729.661 175.507V251H698.879V175.507H653.538L580.5 151H761V175.507H729.661Z" fill="#FF006E"/>
<path d="M451.48 282.24H463.38V285.54H455.9V287.44H462.3V290.6H455.9V292.7H463.52V296H451.48V282.24ZM477.674 296H473.034L471.034 292.68H470.954L468.934 296H464.514L468.574 290.4L464.914 285.44H469.594L471.274 288.24H471.354L473.034 285.44H477.434L473.714 290.5L477.674 296ZM485.933 285.2C487.36 285.2 488.46 285.667 489.233 286.6C490.007 287.533 490.393 288.913 490.393 290.74C490.393 292.553 490.007 293.927 489.233 294.86C488.46 295.78 487.36 296.24 485.933 296.24C484.707 296.24 483.72 295.84 482.973 295.04V299.94H478.993V285.44H482.233L482.573 286.94C483.347 285.78 484.467 285.2 485.933 285.2ZM484.693 288.14C484.107 288.14 483.667 288.347 483.373 288.76C483.08 289.173 482.933 289.713 482.933 290.38V291.04C482.933 291.707 483.08 292.253 483.373 292.68C483.667 293.093 484.107 293.3 484.693 293.3C485.84 293.3 486.413 292.613 486.413 291.24V290.18C486.413 288.82 485.84 288.14 484.693 288.14ZM492.453 296V281.5H496.433V296H492.453ZM504.433 285.2C506.287 285.2 507.74 285.673 508.793 286.62C509.86 287.553 510.393 288.92 510.393 290.72C510.393 292.52 509.86 293.893 508.793 294.84C507.74 295.773 506.287 296.24 504.433 296.24C502.58 296.24 501.127 295.773 500.073 294.84C499.02 293.907 498.493 292.533 498.493 290.72C498.493 288.907 499.02 287.533 500.073 286.6C501.127 285.667 502.58 285.2 504.433 285.2ZM504.433 287.9C503.127 287.9 502.473 288.653 502.473 290.16V291.3C502.473 292.793 503.127 293.54 504.433 293.54C505.753 293.54 506.413 292.793 506.413 291.3V290.16C506.413 288.653 505.753 287.9 504.433 287.9ZM518.733 285.18C519.04 285.18 519.313 285.22 519.553 285.3C519.793 285.367 519.913 285.407 519.913 285.42V288.76H518.633C517.807 288.76 517.207 288.973 516.833 289.4C516.473 289.827 516.293 290.46 516.293 291.3V296H512.313V285.44H515.573L515.833 287.04C516.073 286.427 516.453 285.967 516.973 285.66C517.493 285.34 518.08 285.18 518.733 285.18ZM526.752 285.2C528.365 285.2 529.679 285.473 530.692 286.02C531.705 286.553 532.212 287.427 532.212 288.64V292.76C532.212 292.987 532.265 293.173 532.372 293.32C532.479 293.467 532.639 293.54 532.852 293.54H533.572V295.84C533.532 295.867 533.425 295.913 533.252 295.98C533.092 296.033 532.859 296.087 532.552 296.14C532.245 296.207 531.892 296.24 531.492 296.24C530.719 296.24 530.079 296.127 529.572 295.9C529.079 295.66 528.739 295.333 528.552 294.92C528.045 295.32 527.479 295.64 526.852 295.88C526.225 296.12 525.492 296.24 524.652 296.24C522.172 296.24 520.932 295.253 520.932 293.28C520.932 292.253 521.205 291.473 521.752 290.94C522.312 290.393 523.112 290.02 524.152 289.82C525.192 289.62 526.552 289.52 528.232 289.52V289C528.232 288.587 528.085 288.273 527.792 288.06C527.512 287.847 527.145 287.74 526.692 287.74C526.279 287.74 525.919 287.813 525.612 287.96C525.319 288.107 525.172 288.34 525.172 288.66V288.74H521.252C521.239 288.673 521.232 288.58 521.232 288.46C521.232 287.46 521.705 286.667 522.652 286.08C523.612 285.493 524.979 285.2 526.752 285.2ZM528.232 291.4C527.099 291.4 526.259 291.527 525.712 291.78C525.179 292.02 524.912 292.347 524.912 292.76C524.912 293.427 525.365 293.76 526.272 293.76C526.792 293.76 527.245 293.62 527.632 293.34C528.032 293.06 528.232 292.713 528.232 292.3V291.4ZM541.672 296V281.5H545.652V296H541.672ZM553.412 285.2C555.026 285.2 556.339 285.473 557.352 286.02C558.366 286.553 558.872 287.427 558.872 288.64V292.76C558.872 292.987 558.926 293.173 559.032 293.32C559.139 293.467 559.299 293.54 559.512 293.54H560.232V295.84C560.192 295.867 560.086 295.913 559.912 295.98C559.752 296.033 559.519 296.087 559.212 296.14C558.906 296.207 558.552 296.24 558.152 296.24C557.379 296.24 556.739 296.127 556.232 295.9C555.739 295.66 555.399 295.333 555.212 294.92C554.706 295.32 554.139 295.64 553.512 295.88C552.886 296.12 552.152 296.24 551.312 296.24C548.832 296.24 547.592 295.253 547.592 293.28C547.592 292.253 547.866 291.473 548.412 290.94C548.972 290.393 549.772 290.02 550.812 289.82C551.852 289.62 553.212 289.52 554.892 289.52V289C554.892 288.587 554.746 288.273 554.452 288.06C554.172 287.847 553.806 287.74 553.352 287.74C552.939 287.74 552.579 287.813 552.272 287.96C551.979 288.107 551.832 288.34 551.832 288.66V288.74H547.912C547.899 288.673 547.892 288.58 547.892 288.46C547.892 287.46 548.366 286.667 549.312 286.08C550.272 285.493 551.639 285.2 553.412 285.2ZM554.892 291.4C553.759 291.4 552.919 291.527 552.372 291.78C551.839 292.02 551.572 292.347 551.572 292.76C551.572 293.427 552.026 293.76 552.932 293.76C553.452 293.76 553.906 293.62 554.292 293.34C554.692 293.06 554.892 292.713 554.892 292.3V291.4ZM575.152 285.2C576.579 285.2 577.679 285.667 578.452 286.6C579.226 287.533 579.612 288.913 579.612 290.74C579.612 292.553 579.226 293.927 578.452 294.86C577.679 295.78 576.579 296.24 575.152 296.24C573.926 296.24 572.939 295.84 572.192 295.04V299.94H568.212V285.44H571.452L571.792 286.94C572.566 285.78 573.686 285.2 575.152 285.2ZM573.912 288.14C573.326 288.14 572.886 288.347 572.592 288.76C572.299 289.173 572.152 289.713 572.152 290.38V291.04C572.152 291.707 572.299 292.253 572.592 292.68C572.886 293.093 573.326 293.3 573.912 293.3C575.059 293.3 575.632 292.613 575.632 291.24V290.18C575.632 288.82 575.059 288.14 573.912 288.14ZM586.992 285.2C588.925 285.2 590.399 285.653 591.412 286.56C592.439 287.467 592.952 288.853 592.952 290.72V291.4H585.032C585.032 292.16 585.199 292.733 585.532 293.12C585.879 293.507 586.419 293.7 587.152 293.7C587.819 293.7 588.305 293.56 588.612 293.28C588.932 293 589.092 292.627 589.092 292.16H592.952C592.952 293.44 592.465 294.44 591.492 295.16C590.519 295.88 589.099 296.24 587.232 296.24C585.272 296.24 583.752 295.787 582.672 294.88C581.592 293.96 581.052 292.573 581.052 290.72C581.052 288.907 581.579 287.533 582.632 286.6C583.685 285.667 585.139 285.2 586.992 285.2ZM587.152 287.74C585.899 287.74 585.199 288.333 585.052 289.52H588.932C588.932 288.973 588.772 288.54 588.452 288.22C588.145 287.9 587.712 287.74 587.152 287.74ZM601.292 285.18C601.599 285.18 601.872 285.22 602.112 285.3C602.352 285.367 602.472 285.407 602.472 285.42V288.76H601.192C600.365 288.76 599.765 288.973 599.392 289.4C599.032 289.827 598.852 290.46 598.852 291.3V296H594.872V285.44H598.132L598.392 287.04C598.632 286.427 599.012 285.967 599.532 285.66C600.052 285.34 600.639 285.18 601.292 285.18ZM609.551 285.2C611.284 285.2 612.684 285.573 613.751 286.32C614.831 287.053 615.371 288.18 615.371 289.7H611.511C611.511 288.5 610.857 287.9 609.551 287.9C608.244 287.9 607.591 288.653 607.591 290.16V291.3C607.591 292.793 608.271 293.54 609.631 293.54C610.991 293.54 611.671 292.927 611.671 291.7H615.371C615.371 293.233 614.831 294.373 613.751 295.12C612.684 295.867 611.284 296.24 609.551 296.24C607.697 296.24 606.244 295.773 605.191 294.84C604.137 293.907 603.611 292.533 603.611 290.72C603.611 288.907 604.137 287.533 605.191 286.6C606.244 285.667 607.697 285.2 609.551 285.2ZM622.89 285.2C624.824 285.2 626.297 285.653 627.31 286.56C628.337 287.467 628.85 288.853 628.85 290.72V291.4H620.93C620.93 292.16 621.097 292.733 621.43 293.12C621.777 293.507 622.317 293.7 623.05 293.7C623.717 293.7 624.204 293.56 624.51 293.28C624.83 293 624.99 292.627 624.99 292.16H628.85C628.85 293.44 628.364 294.44 627.39 295.16C626.417 295.88 624.997 296.24 623.13 296.24C621.17 296.24 619.65 295.787 618.57 294.88C617.49 293.96 616.95 292.573 616.95 290.72C616.95 288.907 617.477 287.533 618.53 286.6C619.584 285.667 621.037 285.2 622.89 285.2ZM623.05 287.74C621.797 287.74 621.097 288.333 620.95 289.52H624.83C624.83 288.973 624.67 288.54 624.35 288.22C624.044 287.9 623.61 287.74 623.05 287.74ZM637.73 285.2C639.157 285.2 640.257 285.667 641.03 286.6C641.804 287.533 642.19 288.913 642.19 290.74C642.19 292.553 641.804 293.927 641.03 294.86C640.257 295.78 639.157 296.24 637.73 296.24C636.504 296.24 635.517 295.84 634.77 295.04V299.94H630.79V285.44H634.03L634.37 286.94C635.144 285.78 636.264 285.2 637.73 285.2ZM636.49 288.14C635.904 288.14 635.464 288.347 635.17 288.76C634.877 289.173 634.73 289.713 634.73 290.38V291.04C634.73 291.707 634.877 292.253 635.17 292.68C635.464 293.093 635.904 293.3 636.49 293.3C637.637 293.3 638.21 292.613 638.21 291.24V290.18C638.21 288.82 637.637 288.14 636.49 288.14ZM649.57 285.2C651.303 285.2 652.703 285.573 653.77 286.32C654.85 287.053 655.39 288.18 655.39 289.7H651.53C651.53 288.5 650.877 287.9 649.57 287.9C648.263 287.9 647.61 288.653 647.61 290.16V291.3C647.61 292.793 648.29 293.54 649.65 293.54C651.01 293.54 651.69 292.927 651.69 291.7H655.39C655.39 293.233 654.85 294.373 653.77 295.12C652.703 295.867 651.303 296.24 649.57 296.24C647.717 296.24 646.263 295.773 645.21 294.84C644.157 293.907 643.63 292.533 643.63 290.72C643.63 288.907 644.157 287.533 645.21 286.6C646.263 285.667 647.717 285.2 649.57 285.2ZM657.59 284.2V281.5H661.57V284.2H657.59ZM657.59 296V285.44H661.57V296H657.59ZM667.65 284.16L669.51 281.5H673.35L673.39 281.58L670.21 284.16H667.65ZM669.57 285.2C671.423 285.2 672.877 285.673 673.93 286.62C674.997 287.553 675.53 288.92 675.53 290.72C675.53 292.52 674.997 293.893 673.93 294.84C672.877 295.773 671.423 296.24 669.57 296.24C667.717 296.24 666.263 295.773 665.21 294.84C664.157 293.907 663.63 292.533 663.63 290.72C663.63 288.907 664.157 287.533 665.21 286.6C666.263 285.667 667.717 285.2 669.57 285.2ZM669.57 287.9C668.263 287.9 667.61 288.653 667.61 290.16V291.3C667.61 292.793 668.263 293.54 669.57 293.54C670.89 293.54 671.55 292.793 671.55 291.3V290.16C671.55 288.653 670.89 287.9 669.57 287.9ZM686.91 296L682.91 285.44H687.19L689.13 292.02H689.27L691.21 285.44H695.13L691.09 296H686.91ZM696.477 284.2V281.5H700.457V284.2H696.477ZM696.477 296V285.44H700.457V296H696.477ZM708.017 285.2C709.43 285.2 710.624 285.48 711.597 286.04C712.584 286.587 713.077 287.44 713.077 288.6H709.377C709.377 288.213 709.204 287.94 708.857 287.78C708.617 287.647 708.317 287.58 707.957 287.58C706.997 287.58 706.517 287.807 706.517 288.26C706.517 288.513 706.684 288.693 707.017 288.8C707.35 288.907 707.897 289.02 708.657 289.14C709.59 289.273 710.37 289.433 710.997 289.62C711.624 289.793 712.17 290.113 712.637 290.58C713.104 291.033 713.337 291.673 713.337 292.5C713.337 293.847 712.83 294.807 711.817 295.38C710.817 295.953 709.504 296.24 707.877 296.24C706.944 296.24 706.064 296.113 705.237 295.86C704.41 295.593 703.737 295.187 703.217 294.64C702.697 294.093 702.437 293.4 702.437 292.56H706.137V292.64C706.15 293.093 706.337 293.413 706.697 293.6C707.07 293.773 707.464 293.86 707.877 293.86C708.984 293.86 709.537 293.6 709.537 293.08C709.537 292.813 709.364 292.62 709.017 292.5C708.67 292.38 708.104 292.253 707.317 292.12C706.37 291.96 705.59 291.787 704.977 291.6C704.377 291.413 703.85 291.1 703.397 290.66C702.944 290.207 702.717 289.58 702.717 288.78C702.717 287.487 703.204 286.567 704.177 286.02C705.164 285.473 706.444 285.2 708.017 285.2ZM722.883 296L722.623 294.4C722.21 294.973 721.663 295.427 720.983 295.76C720.317 296.08 719.61 296.24 718.863 296.24C717.637 296.24 716.717 295.9 716.103 295.22C715.49 294.54 715.183 293.56 715.183 292.28V285.44H719.163V291.8C719.163 292.253 719.277 292.62 719.503 292.9C719.743 293.167 720.077 293.3 720.503 293.3C720.997 293.3 721.397 293.14 721.703 292.82C722.01 292.5 722.163 292.107 722.163 291.64V285.44H726.143V296H722.883ZM733.783 285.2C735.397 285.2 736.71 285.473 737.723 286.02C738.737 286.553 739.243 287.427 739.243 288.64V292.76C739.243 292.987 739.297 293.173 739.403 293.32C739.51 293.467 739.67 293.54 739.883 293.54H740.603V295.84C740.563 295.867 740.457 295.913 740.283 295.98C740.123 296.033 739.89 296.087 739.583 296.14C739.277 296.207 738.923 296.24 738.523 296.24C737.75 296.24 737.11 296.127 736.603 295.9C736.11 295.66 735.77 295.333 735.583 294.92C735.077 295.32 734.51 295.64 733.883 295.88C733.257 296.12 732.523 296.24 731.683 296.24C729.203 296.24 727.963 295.253 727.963 293.28C727.963 292.253 728.237 291.473 728.783 290.94C729.343 290.393 730.143 290.02 731.183 289.82C732.223 289.62 733.583 289.52 735.263 289.52V289C735.263 288.587 735.117 288.273 734.823 288.06C734.543 287.847 734.177 287.74 733.723 287.74C733.31 287.74 732.95 287.813 732.643 287.96C732.35 288.107 732.203 288.34 732.203 288.66V288.74H728.283C728.27 288.673 728.263 288.58 728.263 288.46C728.263 287.46 728.737 286.667 729.683 286.08C730.643 285.493 732.01 285.2 733.783 285.2ZM735.263 291.4C734.13 291.4 733.29 291.527 732.743 291.78C732.21 292.02 731.943 292.347 731.943 292.76C731.943 293.427 732.397 293.76 733.303 293.76C733.823 293.76 734.277 293.62 734.663 293.34C735.063 293.06 735.263 292.713 735.263 292.3V291.4ZM742.043 296V281.5H746.023V296H742.043Z" fill="#FF006E"/>
</g>
<defs>
<clipPath id="clip0_19_166">
<rect width="800" height="400" fill="white"/>
</clipPath>
</defs>
</svg>
