<svg width="580" height="184" viewBox="0 0 580 184" fill="none" xmlns="http://www.w3.org/2000/svg">
<path d="M170.175 46.8652V137.134L92 182.268L13.8252 137.134V46.8652L92 1.73145L170.175 46.8652Z" stroke="black" stroke-width="3"/>
<path d="M165.844 49.3652V134.634L92 177.268L18.1562 134.634V49.3652L92 6.73145L165.844 49.3652Z" stroke="black" stroke-width="3"/>
<path d="M161.514 51.8652V132.134L92 172.268L22.4863 132.134V51.8652L92 11.7314L161.514 51.8652Z" stroke="black" stroke-width="3"/>
<path d="M157.184 54.3652V129.634L92 167.268L26.8164 129.634V54.3652L92 16.7314L157.184 54.3652Z" stroke="black" stroke-width="3"/>
<path d="M152.854 56.8652V127.134L92 162.268L31.1465 127.134V56.8652L92 21.7314L152.854 56.8652Z" stroke="black" stroke-width="3"/>
<path d="M148.523 59.3652V124.634L92 157.268L35.4766 124.634V59.3652L92 26.7314L148.523 59.3652Z" stroke="black" stroke-width="3"/>
<path d="M144.193 61.8652V122.134L92 152.268L39.8066 122.134V61.8652L92 31.7314L144.193 61.8652Z" stroke="black" stroke-width="3"/>
<path d="M139.863 64.3652V119.634L92 147.268L44.1367 119.634V64.3652L92 36.7314L139.863 64.3652Z" stroke="black" stroke-width="3"/>
<path d="M135.533 66.8652V117.134L92 142.268L48.4668 117.134V66.8652L92 41.7314L135.533 66.8652Z" stroke="black" stroke-width="3"/>
<path d="M126.203 64.3652V109.634L87 132.268L47.7969 109.634V64.3652L87 41.7314L126.203 64.3652Z" stroke="black" stroke-width="3"/>
<path d="M116.873 61.8652V102.134L82 122.268L47.127 102.134V61.8652L82 41.7314L116.873 61.8652Z" stroke="black" stroke-width="3"/>
<path d="M107.543 59.3652V94.6338L77 112.268L46.457 94.6338V59.3652L77 41.7314L107.543 59.3652Z" stroke="black" stroke-width="3"/>
<path d="M98.2129 56.8652V87.1338L72 102.268L45.7871 87.1338V56.8652L72 41.7314L98.2129 56.8652Z" stroke="black" stroke-width="3"/>
<path d="M88.8828 54.3652V79.6338L67 92.2676L45.1172 79.6338V54.3652L67 41.7314L88.8828 54.3652Z" stroke="black" stroke-width="3"/>
<path d="M79.5527 51.8652V72.1338L62 82.2676L44.4473 72.1338V51.8652L62 41.7314L79.5527 51.8652Z" stroke="black" stroke-width="3"/>
<path d="M78.6191 51.6152V71.3838L61.5 81.2676L44.3809 71.3838V51.6152L61.5 41.7314L78.6191 51.6152Z" stroke="black" stroke-width="3"/>
<path d="M69.2891 49.1152V63.8838L56.5 71.2676L43.7109 63.8838V49.1152L56.5 41.7314L69.2891 49.1152Z" stroke="black" stroke-width="3"/>
<path d="M68.3564 48.8652V63.1338L56 70.2676L43.6436 63.1338V48.8652L56 41.7314L68.3564 48.8652Z" stroke="black" stroke-width="3"/>
<path d="M59.0264 46.3652V55.6338L51 60.2676L42.9736 55.6338V46.3652L51 41.7314L59.0264 46.3652Z" stroke="black" stroke-width="3"/>
<path d="M49.6963 43.8652V48.1338L46 50.2676L42.3037 48.1338V43.8652L46 41.7314L49.6963 43.8652Z" stroke="black" stroke-width="3"/>
<mask id="path-21-inside-1_242_427" fill="white">
<path d="M41 40L41.866 40.5V41.5L41 42L40.134 41.5V40.5L41 40Z"/>
</mask>
<path d="M41 40L42.5 37.4019L41 36.5359L39.5 37.4019L41 40ZM41.866 40.5H44.866V38.7679L43.366 37.9019L41.866 40.5ZM41.866 41.5L43.366 44.0981L44.866 43.2321V41.5H41.866ZM41 42L39.5 44.5981L41 45.4641L42.5 44.5981L41 42ZM40.134 41.5H37.134V43.2321L38.634 44.0981L40.134 41.5ZM40.134 40.5L38.634 37.9019L37.134 38.7679V40.5H40.134ZM41 40L39.5 42.5981L40.366 43.0981L41.866 40.5L43.366 37.9019L42.5 37.4019L41 40ZM41.866 40.5H38.866V41.5H41.866H44.866V40.5H41.866ZM41.866 41.5L40.366 38.9019L39.5 39.4019L41 42L42.5 44.5981L43.366 44.0981L41.866 41.5ZM41 42L42.5 39.4019L41.634 38.9019L40.134 41.5L38.634 44.0981L39.5 44.5981L41 42ZM40.134 41.5H43.134V40.5H40.134H37.134V41.5H40.134ZM40.134 40.5L41.634 43.0981L42.5 42.5981L41 40L39.5 37.4019L38.634 37.9019L40.134 40.5Z" fill="black" mask="url(#path-21-inside-1_242_427)"/>
<path d="M243.085 62C253.028 62 260.708 64.5562 266.126 69.6685C271.545 74.7809 274.254 82.2247 274.254 92C274.254 101.775 271.545 109.219 266.126 114.331C260.708 119.444 253.028 122 243.085 122C233.142 122 225.462 119.472 220.044 114.416C214.681 109.303 212 101.831 212 92C212 82.1685 214.681 74.7247 220.044 69.6685C225.462 64.5562 233.142 62 243.085 62ZM243.085 75.9045C239.119 75.9045 236.103 77.1124 234.036 79.5281C231.969 81.9438 230.936 85.2022 230.936 89.3034V94.6966C230.936 98.7978 231.969 102.056 234.036 104.472C236.103 106.888 239.119 108.096 243.085 108.096C247.051 108.096 250.067 106.888 252.134 104.472C254.257 102.056 255.318 98.7978 255.318 94.6966V89.3034C255.318 85.2022 254.257 81.9438 252.134 79.5281C250.067 77.1124 247.051 75.9045 243.085 75.9045Z" fill="black"/>
<path d="M316.567 63.0112C320.142 63.0112 323.326 63.8539 326.119 65.5393C328.911 67.1685 331.09 69.4438 332.654 72.3652C334.218 75.2303 335 78.4607 335 82.0562V83.1517C335 86.7472 334.218 90.0056 332.654 92.927C331.09 95.8483 328.911 98.1517 326.119 99.8371C323.326 101.466 320.142 102.281 316.567 102.281H302.742V120.989H284.225V63.0112H316.567ZM302.742 88.7135H310.367C312.322 88.7135 313.774 88.2079 314.724 87.1966C315.729 86.1854 316.232 84.809 316.232 83.0674V82.3933C316.232 80.5955 315.729 79.2191 314.724 78.264C313.774 77.2528 312.322 76.7472 310.367 76.7472H302.742V88.7135Z" fill="black"/>
<path d="M421.79 122L419.205 113.4H397.727L395.142 122H375L397.37 61H420.275L442.645 122H421.79ZM401.826 99.7456H415.106L408.689 78.0233H408.332L401.826 99.7456Z" fill="black"/>
<path d="M511.718 79.7078C511.718 83.4317 510.707 86.8009 508.687 89.8154C506.667 92.8299 503.726 95.0465 499.864 96.4651L513.5 122H491.397L480.524 99.7456H473.216V122H453.52V61H491.041C495.438 61 499.181 61.8571 502.27 63.5712C505.419 65.2263 507.766 67.5019 509.311 70.3983C510.915 73.2355 511.718 76.3387 511.718 79.7078ZM491.665 80.5058C491.665 78.9099 491.13 77.5799 490.06 76.516C488.991 75.452 487.684 74.9201 486.139 74.9201H473.216V86.1802H486.139C487.684 86.1802 488.991 85.6483 490.06 84.5843C491.13 83.4612 491.665 82.1017 491.665 80.5058Z" fill="black"/>
<path d="M564.947 76.6047V122H545.251V76.6047H525.109V61H585V76.6047H564.947Z" fill="black"/>
</svg>
